<svg width="16" height="18" viewBox="0 0 16 18" fill="none" xmlns="http://www.w3.org/2000/svg">
<path d="M2 3.75001L2.73395 14.8816C2.79234 15.7672 2.82154 16.21 3.10993 16.48C3.39832 16.75 3.84209 16.75 4.72962 16.75H11.2704C12.1579 16.75 12.6017 16.75 12.8901 16.48C13.1785 16.21 13.2077 15.7672 13.266 14.8816L14 3.75001" stroke="black" stroke-width="1.5" stroke-linecap="round"/>
<path d="M10 2.75001L9.95672 2.44706C9.84257 1.64802 9.7855 1.2485 9.51474 1.00562C9.50644 0.998172 9.49801 0.990865 9.48946 0.983701C9.21073 0.750008 8.80715 0.750008 8 0.750008C7.19285 0.750008 6.78927 0.750008 6.51053 0.983701C6.50199 0.990865 6.49356 0.998172 6.48526 1.00562C6.2145 1.2485 6.15743 1.64802 6.04328 2.44706L6 2.75001" stroke="black" stroke-width="1.5" stroke-linecap="round"/>
<line x1="0.75" y1="3.00001" x2="15.25" y2="3.00001" stroke="black" stroke-width="1.5" stroke-linecap="round"/>
<line x1="6.25" y1="13" x2="6.25" y2="7.50001" stroke="black" stroke-width="1.5" stroke-linecap="round"/>
<line x1="10.25" y1="13" x2="10.25" y2="7.50001" stroke="black" stroke-width="1.5" stroke-linecap="round"/>
</svg>
