<svg width="332" height="262" viewBox="0 0 332 262" fill="none" xmlns="http://www.w3.org/2000/svg">
<g clip-path="url(#clip0_21_323)">
<path fill-rule="evenodd" clip-rule="evenodd" d="M98.3202 143.648C99.8589 155.79 101.397 167.932 102.936 180.074L104.178 189.879C104.335 191.116 104.187 193.557 104.785 194.665C104.996 195.055 105.551 195.241 105.958 195.471C107.362 196.264 108.767 197.057 110.17 197.85C122.047 204.559 133.923 211.268 145.798 217.977C157.196 224.416 168.593 230.855 179.991 237.293C181.17 237.96 183.078 239.698 184.351 239.24C185.561 238.805 186.798 237.731 187.897 237.054C190.006 235.753 192.115 234.452 194.225 233.152C206.988 225.281 219.751 217.411 232.514 209.541C237.78 206.294 243.046 203.046 248.312 199.799C249.752 198.911 251.193 198.022 252.634 197.134C253.388 196.669 253.485 196.685 253.782 195.897C254.891 192.948 255.404 189.571 256.189 186.511C257.054 183.14 257.918 179.768 258.783 176.397C259.169 174.892 258.988 174.698 258.359 173.246C257.114 170.371 255.87 167.497 254.626 164.623C251.864 158.243 249.102 151.864 246.34 145.485C245.223 142.905 242.532 141.09 240.595 139.192L210.522 109.731C209.758 108.983 208.994 108.235 208.23 107.486C208.105 111.984 207.26 116.819 208.499 121.164C210.532 128.294 212.565 135.424 214.598 142.555C215.58 146.001 216.563 149.447 217.545 152.894C217.728 153.534 218.839 156.073 218.542 156.636C218.378 156.948 216.974 157.264 216.67 157.386C215.363 157.909 214.057 158.432 212.751 158.955C209.111 160.412 205.471 161.869 201.832 163.326C198.558 164.636 195.284 165.947 192.011 167.257C190.901 167.701 189.597 168.524 188.424 168.456C187.376 168.394 186.183 167.848 185.168 167.573C183.384 167.09 181.6 166.606 179.815 166.122C176.311 165.172 172.806 164.223 169.301 163.273C165.358 162.204 162.028 159.065 158.655 156.742C152.859 152.748 147.063 148.755 141.267 144.762C139.94 143.847 139.935 143.326 139.406 141.657C138.218 137.905 137.029 134.154 135.841 130.403C135.206 128.4 134.426 126.389 133.947 124.338C133.156 120.954 132.687 117.451 132.061 114.029C131.873 112.997 131.684 111.964 131.495 110.932C129.067 111.968 126.64 113.005 124.212 114.042C123.861 114.192 122.146 114.64 121.994 115.008C121.897 115.24 122.407 116.296 122.48 116.523C124.493 122.796 126.506 129.068 128.519 135.34C129.152 137.313 129.785 139.286 130.418 141.26C128.905 138.758 127.392 136.256 125.879 133.754C124.69 137.962 123.501 142.169 122.312 146.377C119.503 142.965 116.693 139.554 113.883 136.142C112.91 139.554 111.937 142.965 110.965 146.377C107.939 142.169 104.913 137.962 101.887 133.754C101.527 135.95 101.167 138.146 100.807 140.341C100.699 141.004 100.72 142.905 100.301 143.43C99.9559 143.862 98.9618 143.648 98.3202 143.648Z" fill="#FF788F"/>
<path fill-rule="evenodd" clip-rule="evenodd" d="M289.912 169.894C289.742 175.609 289.86 183.029 286.887 188.054C286.408 188.865 284.782 191.392 284.601 189.169C284.423 186.987 284.933 184.826 284.428 182.619C284.157 181.438 283.248 178.858 281.693 179.925C280.901 180.469 280.692 181.811 280.382 182.659C279.924 183.913 279.41 185.146 278.927 186.391C277.242 190.734 275.495 195.917 271.747 198.791C272.238 195.046 273.574 191.047 272.676 187.261C272.37 185.971 271.442 183.615 269.844 184.371C268.287 185.108 267.278 188.394 266.544 189.858C264.316 194.295 262.038 198.649 259.53 202.92C258.268 205.069 256.906 207.032 255.255 208.87C254.223 210.02 252.937 211.963 251.31 212.134C251.31 208.858 252.334 205.693 253.27 202.608C254.276 199.29 255.193 195.945 256.181 192.621C257.037 189.738 257.74 186.877 258.311 183.921C258.547 182.698 258.734 181.432 259.724 180.643C260.615 179.933 262.021 179.595 263.014 179.074C265.621 177.703 268.302 176.225 270.723 174.521C271.718 173.822 272.573 172.919 273.615 172.291C274.801 171.577 275.908 170.975 277.006 170.104C281.741 166.346 286.01 161.723 288.887 156.219C289.354 158.43 289.972 160.591 290.041 162.87C290.11 165.207 289.982 167.558 289.912 169.894ZM250.938 196.165C250.181 194.819 249.027 195.371 248.01 196.019C246.433 197.026 244.851 198.026 243.265 199.02C240.038 201.043 236.871 203.172 233.718 205.319C227.3 209.691 220.659 213.268 213.892 216.968C207.353 220.544 201.072 224.799 194.945 229.1C193.472 230.134 192.01 231.192 190.596 232.313C189.341 233.308 188.337 234.705 187.016 235.591C185.64 236.513 184.694 235.765 183.378 235.085C181.733 234.234 180.017 233.521 178.335 232.754C171.546 229.657 164.738 226.442 158.134 222.927C151.57 219.434 145.35 215.408 139.061 211.41C136.065 209.506 133.121 207.482 130.167 205.508C127.022 203.407 123.767 201.834 120.468 200.048C119.009 199.258 117.717 198.185 116.218 197.466C114.642 196.711 112.977 196.17 111.566 195.08C110.934 194.592 110.4 194.008 109.677 193.662C109.084 193.379 108.41 193.331 107.824 193.03C106.631 192.417 106.29 191.174 106.059 189.881C104.574 181.578 103.784 173.046 102.923 164.651C102.44 159.93 101.9 155.228 101.231 150.532C100.93 148.415 101.536 146.774 101.854 144.715C102.226 142.309 102.373 139.854 102.622 137.432C103.797 139.722 104.813 142.126 106.308 144.216C107.41 145.756 109.292 147.941 111.322 147.889C114.476 147.809 114.331 142.117 114.458 139.858C115.895 141.207 116.331 143.405 117.523 144.972C118.612 146.403 120.094 148.178 121.766 148.819C125.286 150.168 124.947 143.292 124.754 141.342C124.656 140.364 124.132 138.817 125.377 139.263C126.524 139.673 127.64 141.376 128.603 142.157C130.27 143.507 132.097 144.629 133.807 145.918C135.927 147.517 138.216 148.673 140.378 150.163C141.73 151.094 143.205 151.303 144.68 151.988C146.839 152.992 148.747 154.489 150.803 155.692C154.875 158.074 159.391 160.211 163.844 161.647C165.285 162.112 167.205 163.422 168.298 162.075C168.971 161.247 169.413 159.982 169.984 159.053C170.707 157.878 171.475 156.733 172.272 155.612C175.105 151.627 178.248 147.864 181.74 144.503C185.802 140.593 190.244 137.075 194.995 134.144C197.036 132.885 205.56 127.241 207.434 131.213C205.894 131.112 204.559 131.705 203.243 132.447C202.922 132.628 201.264 133.873 201.652 132.776C201.171 132.871 200.749 133.531 200.384 133.825C199.754 134.332 198.799 134.919 198.069 135.339C197.348 135.754 196.457 135.856 195.8 136.359C195.56 136.543 195.415 136.841 195.186 137.04L194.529 137.046C194.431 137.428 194.333 137.81 194.235 138.193C193.864 136.942 193.335 138.568 192.715 139.097C192.343 139.415 191.753 139.742 191.314 139.947C190.986 140.1 190.936 139.744 190.617 140.015C190.335 140.255 190.154 140.785 189.85 141.086C189.477 141.456 189 141.742 188.584 142.058C187.787 142.662 186.944 143.136 186.136 143.708C185.05 144.478 184.481 145.803 183.426 146.609C182.927 146.99 182.151 147.035 181.88 147.279C181.202 147.892 181.426 148.822 180.161 148.863C180.276 149.056 180.346 149.266 180.369 149.493C180.068 149.439 179.8 149.307 179.566 149.099C179.618 150.426 178.378 150.9 177.635 151.717C177.206 152.188 176.672 152.85 176.37 153.417C176.32 153.511 176.224 154.268 176.203 154.278C176.088 154.336 175.39 153.69 175.456 153.744C175.261 154.97 174.133 156.129 173.639 157.264C173.379 157.862 173.115 158.824 172.603 159.244C172.463 159.359 172.034 159.239 171.68 159.637C171.42 159.928 171.12 160.467 171.014 160.853C170.944 161.111 171.028 161.779 170.927 161.934C170.742 162.217 170.453 161.933 170.163 162.142C169.626 162.529 169.612 163.134 168.827 163.213C169.368 164.598 172.638 165.024 173.826 165.418C177.186 166.531 180.712 167.642 183.853 169.347C184.666 169.787 185.434 170.151 185.578 171.166C185.779 172.579 185.095 174.458 184.964 175.886C184.61 179.74 184.538 183.709 184.612 187.58C184.682 191.246 184.795 194.947 184.957 198.609C185.108 202.005 185.758 205.333 186.109 208.705C186.206 209.63 186.142 213.803 187.654 213.593C188.916 213.418 188.119 210.567 188.095 209.75C188.042 207.942 188.404 206.096 188.389 204.271C188.382 203.394 188.746 202.638 188.781 201.799C188.816 200.97 188.424 200.315 188.542 199.455C188.655 198.63 190.972 193.885 188.746 194.441C188.877 193.763 188.991 193.079 189.163 192.41C189.401 192.636 189.593 192.899 189.738 193.199C189.936 191.742 189.869 190.287 189.992 188.829C190.047 188.168 190.302 187.444 190.215 186.779C190.232 186.503 190.198 186.232 190.115 185.966C189.978 185.814 189.809 185.734 189.607 185.726C189.501 185.361 189.474 185.261 189.662 184.903C189.743 184.66 189.903 184.509 190.143 184.449C190.599 184.392 190.651 184.116 190.299 183.621C190.483 182.644 190.507 182.027 190.374 181.052C190.262 180.233 190.673 178.647 190.255 177.918C189.767 177.065 189.524 177.892 189.433 176.71C189.414 176.46 189.398 175.939 189.494 175.69C189.599 175.418 189.914 175.529 189.954 175.433C190.227 174.776 190.245 173.483 189.278 173.595C189.316 173.126 189.354 172.657 189.392 172.188C190.09 173.034 189.846 172.318 190.242 171.848C190.776 171.214 191.298 171.105 192.061 170.854C194.094 170.187 196.053 169.183 198.04 168.368C202.247 166.643 206.532 165.102 210.616 163.064C219.205 158.775 227.624 154.121 236.266 149.946C235.649 148.74 236.033 148.681 236.484 147.549C237.087 147.99 236.96 147.683 237.389 147.656C237.35 147.278 237.461 147.164 237.723 147.314C237.932 147.381 238.145 147.405 238.364 147.385C238.899 147.482 239.336 147.791 239.823 147.909C239.982 148.033 240.158 148.126 240.349 148.188C240.521 148.147 240.667 148.057 240.789 147.92C241.576 148.073 241.841 148.697 241.876 149.6C241.882 149.758 241.424 149.919 241.555 150.13C241.784 150.499 242.399 150.411 242.751 150.458C242.674 150.842 242.597 151.225 242.52 151.608C244.065 150.858 243.662 153.206 244.131 153.977C244.261 154.192 244.552 154.02 244.704 154.27C244.901 154.595 244.841 155.056 245.01 155.38C245.39 156.113 245.771 156.024 246.15 156.864C248.13 161.247 250.765 165.331 252.666 169.809C253.572 171.94 254.388 174.107 255.333 176.22C256.203 178.164 256.7 179.817 256.08 181.94C254.642 186.865 253.105 191.88 251.221 196.637C251.127 196.48 251.033 196.322 250.938 196.165ZM150.66 232.928C150.525 233.169 150.39 233.411 150.255 233.653C149.956 231.839 150.754 232.68 150.66 232.928ZM144.319 229.533C143.886 229.396 144.073 228.654 144.087 228.336C144.36 228.695 144.629 229.06 144.856 229.454C144.677 229.48 144.498 229.506 144.319 229.533ZM126.94 222.562C127.393 222.295 127.72 222.102 128.234 221.798C127.712 222.871 127.712 222.871 126.94 222.562ZM99.5985 128.086C98.905 129.877 101.02 140.936 99.0509 141.297C98.7685 140.326 98.7332 137.654 97.5644 137.335C96.1141 136.939 96.2571 139.69 96.059 140.541C93.0817 138.361 91.7592 134.152 90.3369 130.817C88.5239 126.565 87.0973 122.143 85.7349 117.713C84.57 113.925 83.6068 110.07 82.4295 106.289C81.69 103.914 80.8927 101.533 80.3954 99.0846C80.2874 98.5527 79.8624 97.2042 80.2235 96.6986C80.7484 95.9635 82.638 96.8054 83.2469 96.9985C87.1968 98.2491 91.2943 98.7875 95.3526 99.5141C99.8615 100.321 104.36 101.155 108.896 101.781C110.03 101.937 111.164 102.085 112.299 102.229C113.035 102.322 114.149 102.229 114.848 102.576C116.263 103.279 116.564 105.967 117.089 107.361C119.05 112.565 121.357 117.603 123.422 122.759C125.282 127.404 126.691 132.346 129.364 136.575C127.371 135.645 124.844 130.728 122.616 133.562C121.659 134.781 121.9 136.386 121.977 137.845C122.088 139.953 122.122 142.077 122.122 144.189C119.942 143.593 118.477 140.989 117.333 139.144C115.77 136.625 114.785 134.251 114.093 131.362C113.793 130.112 112.998 130.081 112.291 129.332C111.837 128.851 111.609 128.203 110.958 128.903C110.14 129.782 110.684 132.218 110.826 133.256C111.161 135.727 112.262 139.53 111.192 141.852C109.748 144.985 105.878 137.101 105.425 135.962C105.195 135.382 101.078 124.266 99.5985 128.086ZM96.8952 74.3867C97.139 74.4259 97.3825 74.4651 97.6263 74.5043C97.4298 74.6869 97.021 75.3269 96.687 75.1576C96.7564 74.9008 96.8258 74.6439 96.8952 74.3867ZM109.809 71.4709C109.733 71.5592 109.656 71.6473 109.579 71.7356C109.23 71.2757 109.354 70.6054 109.354 70.0736C109.816 70.3673 109.928 70.9547 109.809 71.4709ZM110.852 76.5731V78.0761C109.884 77.6347 109.865 77.4068 110.852 76.5731ZM112.028 78.4842C111.35 78.2883 111.269 78.1304 111.364 77.0336C111.645 77.648 111.83 78.0529 112.028 78.4842ZM115.932 89.6157C115.648 90.3854 113.986 88.5514 114.047 88.0025C114.105 87.4788 114.361 87.3226 114.713 87.6593C114.829 87.7708 114.656 88.1737 114.73 88.3136C114.999 88.8199 115.539 89.234 115.932 89.6157ZM115.951 94.2526C115.535 95.3463 114.792 93.6239 115.88 93.5768C115.951 93.7968 115.975 94.022 115.951 94.2526ZM115.143 92.5281C114.982 92.3019 114.825 92.0727 114.673 91.8393C115.234 91.9584 115.678 92.8174 116.27 92.2443C116.199 93.1183 115.609 93.1425 115.143 92.5281ZM78.9134 78.3214C78.0124 77.2867 83.8875 76.5604 84.5963 76.3827C89.7397 75.0921 94.5958 73.2247 99.405 70.9332C101.699 69.8402 103.982 68.7339 106.222 67.5221C107.189 66.9991 108.516 66.5557 109.323 65.7703C109.9 65.2098 109.877 64.7858 110.627 64.4518C111.263 64.169 111.295 64.4361 111.587 63.9244C111.762 63.6174 111.96 62.4923 111.857 62.1593C111.578 61.2508 111.165 61.9874 110.586 61.3614C110.169 60.91 110.27 59.6266 110.384 59.0951C110.532 59.3483 110.616 59.6232 110.639 59.9193C111.268 59.5932 111.014 58.4732 111.702 58.2897C112.427 58.0966 112.352 58.6905 112.541 59.2978C113.088 58.4517 112.649 57.7302 112.353 56.904C113.86 56.6072 115.478 56.3196 116.972 56.847C118.052 57.228 118.976 58.1652 120.116 58.3463C121.233 58.5234 121.448 57.9663 122.271 57.401C122.939 56.9422 123.513 57.4825 123.857 57.1359C123.645 58.3061 121.822 58.1461 122.046 59.6082C122.147 60.2663 122.914 60.8575 123.263 61.3696C123.701 62.0123 124.05 62.7229 124.348 63.4471C125.508 66.2643 126.005 69.5335 126.492 72.5462C127.693 79.9825 127.845 87.5655 128.975 95.0256C129.514 98.579 130.054 102.134 130.333 105.723C130.404 106.62 130.924 108.655 130.498 109.518C130.138 110.247 129.337 110.249 128.633 110.425C127.256 110.769 125.964 111.237 124.643 111.755C123.459 112.219 123.115 112.504 122.355 111.332C121.62 110.198 121.257 108.847 120.731 107.604C120.061 106.02 119.252 104.491 118.475 102.963C120.001 102.963 120.88 102.097 120.839 100.465C120.795 98.6575 119.382 98.2287 118.8 96.7433C118.234 97.5174 118.186 97.5392 117.782 96.8044C117.321 95.9641 117.009 94.4266 116.727 93.4734C116.929 93.7003 117.131 93.9271 117.333 94.1537C117.842 93.4161 117.044 92.2535 116.777 91.5589C116.365 90.4864 116.293 89.3268 115.902 88.2573C115.689 87.6736 115.196 87.2141 115.075 86.6051C114.994 86.1975 115.318 85.8096 115.241 85.3958C115.107 84.6753 114.333 83.9022 114.092 83.1695C113.721 82.0423 113.319 81.0499 112.859 79.9518C112.237 78.4654 112.381 76.9057 112.268 75.3238C112.15 73.6836 111.65 72.1143 111.474 70.4812C111.352 69.353 111.734 67.9325 110.923 67.0288C110.828 68.5309 111.237 68.5077 109.895 68.7779C108.368 69.0853 107.261 70.2823 105.817 70.6395C105.519 70.7132 105.303 69.3452 105.419 71.2113C104.726 70.6733 103.248 71.3412 103.799 71.6606C103.382 72.131 102.558 71.8055 102.421 72.5104C101 71.0574 98.7228 76.003 97.0314 73.4233C96.7522 75.1716 95.549 76.2053 93.9338 76.4366C93.1216 76.5526 92.621 76.8375 91.9003 77.0937C91.754 77.1452 91.7002 77.3666 91.5271 77.4263C91.2625 77.517 90.8741 77.2431 90.6835 77.2963C90.2954 77.4048 89.8639 77.9421 89.3221 78.0489C88.7009 78.1713 88.0233 78.115 87.4014 78.0393C86.6239 77.9445 86.2819 77.8476 85.5206 78.1171C84.8359 78.3596 84.1025 79.0389 83.467 78.2993C82.4687 80.1165 80.0887 79.6724 78.9134 78.3214ZM125.064 56.3916C124.309 56.2964 124.833 55.6127 125.183 55.4073C126.134 54.8499 125.88 56.4946 125.064 56.3916ZM83.2333 62.9129C87.6673 56.1821 95.2514 51.5575 101.924 47.6664C105.569 45.5411 109.29 43.4809 113.117 41.7414C115.02 40.8769 116.945 40.0459 118.888 39.2865C119.925 38.8809 120.975 38.5121 122.026 38.145C122.317 38.0437 122.845 37.7326 123.149 37.7629C123.097 37.7575 123.905 37.9888 123.746 38.0614C124.267 37.823 124.514 37.2011 125.127 36.9524C125.815 36.6726 126.691 36.557 127.428 36.5317C128.08 36.5092 128.644 36.7927 129.266 36.8149C129.674 36.8292 130.021 36.6252 130.42 36.5952C130.625 36.5802 130.607 36.9022 130.73 36.921C130.784 36.9292 131.328 36.7139 131.333 36.7177C131.532 36.8517 131.708 37.3751 131.887 37.5794C132.401 38.1655 133.156 38.5738 133.842 38.8822C134.676 39.2575 136.712 39.6348 135.768 41.0233C136.439 40.922 136.75 41.5592 135.911 41.7206C135.457 41.8083 135.263 41.3702 134.925 41.0714C134.145 40.3823 132.253 39.4011 131.129 39.4455C130.498 39.4704 130.009 39.9749 129.427 40.1581C128.853 40.3383 128.569 40.0589 128.066 40.1032C127.478 40.1547 127.099 40.6784 126.539 40.7715C126.014 40.8588 125.721 40.4822 125.252 40.5085C124.694 40.5395 124.154 41.0492 123.622 41.2205C122.775 41.4927 122.153 41.6783 121.326 42.1296C119.724 43.0047 117.935 43.3369 116.283 44.0902C114.963 44.6923 113.466 45.0092 112.245 45.6751C110.886 46.4151 109.522 47.1523 108.191 47.9564C107.23 48.5374 105.277 48.7373 104.217 48.5895C104.202 50.6426 103.241 49.2033 102.274 50.1025C102.503 50.3151 102.763 50.4713 103.053 50.5713C102.004 51.012 101.034 51.5606 100.018 52.0672C98.9682 52.5912 97.8477 52.7065 97.1578 53.6975C96.5223 54.6108 96.7376 54.1397 95.7893 54.4992C95.3542 54.6643 94.9758 55.1679 94.6623 55.5059C94.1234 56.0873 94.0041 56.9674 93.6964 55.7727C93.6066 55.9184 93.2532 56.846 93.1845 56.8695C92.799 56.439 92.7436 56.9493 92.528 57.1318C92.6414 57.5286 92.4793 57.7885 92.0416 57.9117C91.8202 58.085 91.5958 58.2549 91.3692 58.421C90.547 59.0211 89.5004 59.5359 88.9214 60.43C88.4944 60.165 88.3361 59.7075 88.5962 59.2405C87.7801 60.0319 86.8065 60.8449 86.5857 62.0631C86.4842 61.9601 86.3659 61.8857 86.2316 61.84C85.9003 62.0754 86.3318 62.7768 86.5419 62.9347C87.4581 62.5602 86.313 62.6959 86.9287 62.7563C87.1041 62.7734 87.2844 62.9115 87.4779 62.9139C88.0456 62.9218 88.579 62.8931 89.1418 62.802C90.3829 62.6007 91.6026 62.2258 92.8042 61.8499C94.1127 61.4405 95.4216 61.0318 96.7013 60.5297C97.755 60.1162 98.7912 59.6553 99.8271 59.1961C100.241 59.0126 100.654 58.8267 101.069 58.6445C101.855 58.2986 102.27 57.7302 102.16 58.7038C102.787 58.5943 103.33 57.6623 103.811 57.2819C104.488 56.7474 105.25 56.3486 106.052 56.0757C106.377 55.9651 106.615 55.8246 106.951 55.8235C107.116 55.8232 107.214 56.3117 107.318 56.2851C108.038 56.1016 107.71 55.682 108.033 55.0775C108.741 53.7562 110.648 53.0255 111.818 52.2749C112.561 51.7984 113.089 51.1574 113.775 50.6296C114.096 50.383 114.329 50.2738 114.665 50.1694C114.923 50.0892 115.239 50.7115 115.405 50.0862C114.807 49.8286 114.313 49.511 113.737 49.323C113.329 49.1896 113.818 48.7335 113.172 49.0051C112.913 49.1142 112.824 49.6423 112.728 49.8634C112.007 49.1855 109.979 49.8879 109.123 50.1718C109.064 50.1912 108.8 50.0445 108.675 50.0534C108.181 50.0882 107.837 50.7879 107.512 51.0895C106.647 51.8908 105.709 52.2258 104.644 52.6833C104.928 51.0543 107.01 50.387 108.226 49.7631C110.002 48.8509 111.657 47.6865 113.602 47.196C114.897 46.8688 116.614 46.6058 117.174 48.1907C117.509 49.1408 117.551 51.5012 116.418 51.9396C116.298 51.4961 116.681 51.1171 116.797 50.7323C115.669 51.1853 115.483 52.611 114.626 53.355C114.145 53.7729 113.973 53.907 113.74 54.3109C113.509 54.7121 113.398 55.0863 112.856 55.5131C111.971 53.5341 112.12 56.2449 111.671 56.585C111.852 56.4482 110.94 56.8477 111.049 56.8054C111.006 56.8217 110.609 56.1442 110.351 56.1586C109.882 56.1845 109.972 56.7279 109.746 57.0015C108.98 57.9274 107.99 58.5346 106.757 58.389C106.728 59.0477 106.922 59.8347 106.067 59.8948L105.955 58.4343C105.489 58.9297 104.877 59.4001 104.498 59.9736C104.067 60.6262 104.113 61.0281 103.398 61.463C102.651 61.9178 101.062 62.8136 100.173 62.8911C100.393 62.5629 100.354 62.2664 100.057 62.0024C99.6099 62.4875 98.9498 62.5353 98.4738 62.9733C100.126 63.6996 97.2045 63.6621 96.8339 63.7443C96.5859 63.7995 96.3693 64.0373 96.118 64.0909C95.7844 64.1622 95.7413 63.7931 95.454 63.9101C95.0338 64.0813 95.2044 64.5647 94.7647 64.8076C94.449 64.9823 93.9133 64.9799 93.557 65.1457C92.7079 65.5414 90.8991 66.4178 90.3252 65.3548C90.0344 67.1786 87.0642 66.0685 85.9648 65.9457C84.4591 65.7775 81.8365 65.0338 83.2333 62.9129ZM89.5575 44.2529C89.7705 44.0615 89.9838 44.0755 90.1972 44.2952C89.9002 42.6447 92.1973 41.8434 93.1994 41.1417C94.5287 40.211 96.0934 38.4053 97.8328 38.5483C97.5362 38.7796 97.2402 39.0109 96.9438 39.2422C97.3669 39.2998 97.7897 39.3575 98.2122 39.4151C97.9739 39.7836 97.7352 40.1516 97.4963 40.5197C97.1059 38.2559 95.0692 41.114 94.4798 41.5306C93.8861 41.9498 93.2941 42.2623 92.7666 42.7737C92.2439 43.2803 91.7722 44.1925 90.9082 43.7367C90.8294 45.0297 89.8415 44.679 89.1584 45.3951C89.1298 44.9458 89.3743 44.6282 89.5575 44.2529ZM98.5818 37.7988C100.684 36.9701 102.515 35.438 104.496 34.3436C106.389 33.298 108.319 32.3592 110.243 31.3839C111.219 30.8889 113.007 29.6089 114.123 30.2611C115.628 31.142 113.555 31.4262 113.017 31.7311C112.818 30.3747 112.121 31.6036 112.537 32.3582C111.389 31.8362 108.883 33.8783 107.788 34.4415C107.54 34.5691 107.651 34.6428 107.369 34.7929C107.299 34.8298 106.58 35.0021 106.374 35.0747C105.343 35.438 104.663 35.1494 104.218 36.4598C104.125 36.1514 104.032 35.8426 103.939 35.5339C103.293 37.0598 101.33 37.7278 100.075 38.6301C99.7512 38.8628 98.8272 39.7651 98.4167 39.5785C97.8455 39.3186 98.0747 37.9983 98.5818 37.7988ZM136.511 42.3995C137.399 42.4612 136.543 42.8968 136.787 43.1848C136.759 43.1524 137.321 43.6569 137.248 43.5184C137.347 43.7047 137.585 43.6979 137.707 44.0765C138.127 45.3787 136.294 46.7242 135.675 47.4631C134.473 48.9003 133.778 50.7203 132.526 52.1115C131.96 52.7399 131.397 53.1739 130.613 53.4082C130.064 53.5723 129.483 53.3966 128.979 53.952C128.572 54.3993 128.664 54.6534 128.215 54.8912C127.424 55.3105 127.076 54.9427 126.306 55.8488C125.644 53.9541 127.547 53.9571 128.54 52.8982C129.911 51.4364 131.413 49.9616 132.698 48.3978C133.84 47.0083 134.298 45.7901 134.84 44.1021C135.011 43.5699 135.197 42.4288 135.668 42.0948C136.402 41.5749 135.961 42.3609 136.511 42.3995ZM140.876 91.62C143.205 88.8799 146.093 86.4196 149.223 84.7691C150.342 84.1789 151.935 83.4045 153.095 84.313C154.232 85.2034 153.988 86.9797 153.529 88.1881C153.09 88.0066 153.504 86.3083 153.277 85.8887C152.779 84.9731 151.706 85.4592 150.976 85.7663C150.121 86.1258 149.357 86.5229 148.68 87.1755C148.405 87.4399 147.879 87.677 147.703 87.8588C147.438 87.7432 147.282 87.8275 147.236 88.1113C147.29 88.2853 147.284 88.4565 147.216 88.6251C147.177 88.6786 146.833 88.4589 146.784 88.5029C146.561 88.7039 146.352 88.9403 146.133 89.1269C145.692 89.5018 145.318 89.6792 144.912 90.2018C144.129 91.212 143.092 91.8039 142.306 92.7662C142.128 92.9839 141.915 93.5417 141.875 93.5904C141.477 94.079 140.887 94.4655 140.439 94.9827C139.663 95.8761 138.835 96.4758 137.939 97.2421C137.554 97.5716 137.104 97.9267 136.848 98.3852C136.731 98.5944 136.665 99.7406 136.661 99.7454C135.783 100.758 135.954 98.7226 136.02 98.4675C136.733 95.7216 139.143 93.66 140.876 91.62ZM136.084 110.188C136.193 110.619 136.283 110.975 136.394 111.413C135.698 110.812 135.698 110.812 136.084 110.188ZM135.332 111.6C135.076 111.871 134.819 112.141 134.56 112.408C133.991 111.775 135.437 111.491 135.332 111.6ZM134.971 100.696C134.698 101.855 133.701 103.261 133.016 104.176C133.092 104.075 132.431 104.278 132.356 104.324C132.112 104.472 132.696 105.436 131.851 105.006C131.55 105.184 132.141 105.912 131.733 106.238C130.555 103.412 133.773 100.963 135.02 98.8649C135.629 99.4537 135.124 100.046 134.971 100.696ZM127.314 115.977C128.173 116.21 128.62 116.064 129.201 115.175C129.55 114.642 129.677 113.697 130.475 114.495L130.616 113.469C131.755 113.96 131.659 115.737 132.157 116.721C132.399 115.608 132.972 112.496 134.729 112.995C136.7 113.556 133.419 117.123 133.114 117.997C132.444 116.903 132.707 117.921 132.196 118.075C131.757 118.208 131.072 117.868 130.539 117.899C128.917 117.992 127.493 118.759 126.011 119.409C125.636 118.345 125.261 117.281 124.886 116.217C125.758 116.288 127.562 113.845 127.818 115.62C127.171 115.502 126.989 115.532 126.674 116.151C126.875 116.044 127.088 115.986 127.314 115.977ZM130.954 129.866C130.951 129.857 132.632 129.966 132.781 129.909C133.931 129.467 133.506 128.095 133.741 127.125C134.215 127.584 133.964 128.42 134.11 129.014C134.282 129.711 134.778 130.305 134.824 131.051C134.929 132.736 133.615 132.362 132.619 132.907C131.768 133.373 131.673 133.959 130.955 132.703C130.76 132.364 130.342 131.478 130.385 131.044C130.427 130.613 131.075 130.255 130.954 129.866ZM132.308 137.157L131.843 136.609C133.228 137.055 132.411 136.385 132.73 135.468C133.792 136.213 134.659 136.978 135.5 135.487L136.952 141.652C135.977 141.893 134.718 140.307 134.049 139.762C133.662 139.448 131.518 138.235 132.805 137.881C132.639 137.64 132.474 137.398 132.308 137.157ZM141.789 117.8C140.983 118.606 140.171 119.058 139.293 119.692C138.523 120.249 138.788 120.888 138.121 121.509C137.677 121.922 136.638 122.342 136.091 122.657C135.115 123.218 134.241 123.324 133.238 122.697C133.511 125.01 132.005 125.191 130.131 125.649C129.237 125.868 128.708 126.202 128.064 125.341C127.622 124.751 127.45 123.684 127.998 123.144C128.87 122.287 131.193 122.583 132.312 122.044C133.16 121.635 134.025 119.332 135.072 120.17C134.532 119.265 135.161 119.021 135.631 118.375C136.145 117.667 136.462 116.84 136.994 116.137C138.005 114.803 139.558 113.46 140.995 112.656C142.259 111.948 142.923 112.449 143.112 113.936C143.208 114.683 143.204 115.797 142.806 116.46C142.679 116.671 142.261 116.674 142.134 116.872C141.913 117.219 142.116 117.473 141.789 117.8ZM156.623 99.8576C157.632 100.679 157.534 102.405 157.693 103.581C157.917 105.238 157.754 106.841 157.73 108.529C157.705 110.297 156.881 111.449 156.492 113.106C156.061 114.95 155.505 115.926 154.537 117.473C155.586 117.647 154.025 120.944 153.767 121.37C153.488 121.834 151.234 123.968 152.2 123.968C151.667 124.708 151.087 125.467 150.556 126.186C150.347 126.469 149.98 126.581 149.815 126.781C149.48 127.187 149.459 127.549 149.219 128.023C148.854 128.743 148.735 128.551 148.255 129.073C147.924 129.433 147.707 129.909 147.382 130.255C146.334 131.368 146.2 130.456 145.614 129.599C145.524 129.828 145.365 129.972 145.136 130.031C144.952 129.06 146.215 128.08 146.746 127.491C147.616 126.525 148.411 125.46 149.18 124.404C150.827 122.14 152.307 119.735 153.475 117.158C154.718 114.417 155.71 111.449 156.226 108.458C156.619 106.178 156.992 102.267 154.097 101.688C151.991 101.266 149.67 102.612 147.934 103.702C146.876 104.366 145.812 105.026 144.804 105.773C143.71 106.583 142.765 107.729 141.578 108.379C142.227 108.023 140.084 109.093 140.412 108.792C140.259 108.933 140.391 109.362 140.29 109.556C140.158 109.808 139.698 110.057 139.492 110.22C138.947 110.651 138.077 111.091 137.829 111.802C134.374 109.209 141.245 104.605 143.006 103.432C146.499 101.107 152.578 96.5625 156.623 99.8576ZM165.943 74.6357C165.91 72.7683 167.355 70.2189 168.331 68.696C168.809 67.9506 169.572 67.9803 169.852 67.1011C170.013 66.5949 169.801 66.0641 169.849 65.5558C169.914 64.8683 170.197 64.3171 170.524 63.7262C173.479 58.3849 177.069 53.6573 180.892 48.9972C182.777 46.6999 184.565 44.3143 186.598 42.1562C187.448 41.2549 189.73 38.0147 191.036 38.3388C191.728 38.5104 192.13 39.6208 192.442 40.1875C192.959 41.1246 193.526 42.0024 194.154 42.8641C195.809 45.1392 197.719 47.1363 199.975 48.7489C201.383 49.7566 202.806 50.736 204.184 51.7919C205.318 52.6608 207.032 53.6542 207.841 54.8741C208.651 56.0944 207.462 57.1277 206.812 58.1409C205.802 59.7167 204.872 61.3494 203.858 62.9235C203.455 62.6185 203.559 61.999 203.283 61.6084C203.038 61.2621 202.691 61.1212 202.353 60.9073C201.704 60.4983 201.067 59.9981 200.481 60.6835C199.456 61.883 200.866 64.7182 202.386 64.4071C202.565 65.5909 199.53 67.5405 198.769 68.1921C196.435 70.1906 194.027 71.928 190.943 72.1088C189.695 72.1818 188.397 72.0822 187.211 71.6428C186.643 71.4323 186.015 71.1434 185.579 70.6845C185.058 70.1353 184.925 69.3179 184.419 68.7741C183.981 68.3023 183.378 68.2297 182.94 67.7561C182.501 67.2823 182.284 66.5338 182.106 65.9201C181.758 64.721 181.692 63.4563 181.357 62.2545C181.156 61.5316 180.991 60.5651 180.334 61.2597C179.381 62.2688 179.86 65.4418 180.104 66.6508C180.453 68.3757 181.271 69.7662 182.129 71.2502C183.059 72.86 183.402 74.3532 183.569 76.2159C183.881 79.7027 184.832 83.0487 186.311 86.1859C186.934 87.5068 187.68 88.7489 188.353 90.0395C188.667 90.6416 189.371 92.696 190.225 92.685C191.59 92.6673 189.646 88.479 189.376 87.7759C187.881 83.8818 186.453 79.7887 186.132 75.5721C188.276 76.1531 190.612 76.7044 192.832 76.3363C191.399 79.7075 192.895 83.064 192.712 86.5342C192.621 88.2744 192.555 89.8798 192.589 91.6149C192.619 93.1364 191.966 94.6572 191.401 96.033C190.28 98.7653 188.869 102.136 186.787 104.229C185.046 105.978 182.718 106.115 180.443 105.712C175.269 104.795 171.87 100.611 169.699 95.8577C168.303 92.8044 167.237 89.5451 166.575 86.2292C165.809 82.3916 166.011 78.5282 165.943 74.6357ZM172.662 48.7731C167.834 45.0972 174.85 40.923 178.421 41.4913C179.259 41.6244 180.8 41.9887 180.722 43.1391C180.657 44.0793 179.167 45.1273 178.595 45.7075C176.963 47.3635 175.302 50.7828 172.662 48.7731ZM207.786 130.449C207.62 130.293 206.269 130.676 206.804 129.835C207.249 129.136 208.482 130.012 208.93 130.192C208.561 130.46 208.24 130.876 207.786 130.449ZM187.681 174.907C187.266 174.961 186.833 173.783 188.328 174.663C188.113 174.744 187.897 174.826 187.681 174.907ZM187.639 194.1C187.69 194.628 187.843 194.976 187.487 195.36C187.186 194.969 187.147 194.418 187.639 194.1ZM188.246 202.03C188.202 202.318 188.158 202.605 188.114 202.892C187.769 202.708 187.424 202.524 187.078 202.34C187.467 202.237 187.857 202.134 188.246 202.03ZM188.669 195.343C189.183 195.546 188.944 194.898 189.318 194.807C189.452 195.481 189.287 196.059 188.919 196.615C188.884 196.484 188.695 195.353 188.669 195.343ZM201.827 147.489C201.104 147.392 200.995 148.195 200.456 148.507C200.109 148.708 199.051 148.557 198.853 148.942C199.114 149.021 199.375 149.101 199.636 149.18C199.039 149.518 198.442 149.857 197.845 150.195C199.281 150.195 200.777 149.474 202.202 149.686C202.805 149.775 203.247 149.99 203.625 150.506C203.855 150.819 204.056 151.323 204.093 151.706C204.133 152.121 203.826 152.407 203.88 152.605C204.523 152.624 204.447 153.733 204.303 154.185C203.99 155.165 202.747 156.7 201.633 156.078C202.099 156.774 201.981 157.171 201.292 157.574C201.354 157.344 201.4 156.942 201.048 156.982C200.958 157.368 200.992 157.979 200.693 158.27C200.358 158.595 200.059 158.215 199.739 158.426C199.359 158.677 199.473 159.071 199.175 159.344C198.78 159.703 198.724 159.448 198.251 159.518C197.537 159.624 197.993 159.157 197.42 159.766C197.222 159.976 197.255 160.523 196.935 160.831C196.318 161.421 194.672 162.037 194.082 161.279C192.661 163.648 188.404 164.216 186.422 162.346C183.262 159.364 189.155 153.3 191.101 151.378C193.053 149.449 195.222 147.783 197.417 146.175C198.664 145.261 199.944 144.432 201.25 143.618C202.056 143.115 203.068 142.198 204.059 142.286C204.947 142.365 205.706 143.09 206.642 143.234C207.318 143.338 208.632 143.509 207.779 144.474C207.38 144.925 205.812 145.655 205.279 145.765C204.965 145.829 204.635 145.706 204.324 145.772C203.798 145.886 203.437 146.353 202.865 146.294C203.046 147.187 202.715 147.608 201.827 147.489ZM211.18 114.319C211.18 115.018 209.968 114.844 209.715 114.607C209.298 114.216 209.283 113.048 209.128 112.517C209.833 112.703 211.179 113.386 211.18 114.319ZM201.412 91.2587C203.959 89.0559 206.637 87.0363 209.468 85.2576C210.482 84.6207 211.913 83.3359 213.173 83.4963C213.701 83.5638 214.793 84.2021 214.395 84.9059C214.321 85.0376 213.733 85.0904 213.551 85.186C213.345 85.2941 213.184 85.5923 212.993 85.7396C211.67 86.7607 210.081 87.3881 208.754 88.4337C207.663 89.2923 206.646 90.253 205.472 90.9899C204.346 91.6964 203.169 92.1436 202.1 92.9262C202.121 92.9105 200.709 93.4448 200.986 93.542C199.746 93.1057 201.055 91.5674 201.412 91.2587ZM218.394 90.4382C219.907 89.8037 221.387 89.0338 222.972 88.6073C223.762 88.3944 224.574 88.2344 225.392 88.3303C225.531 88.0741 225.716 88.0175 225.948 88.1604C226.128 88.4524 226.366 88.6766 226.662 88.8332C227.113 89.1982 228.775 89.6754 228.443 90.4816C228.223 91.0148 226.557 91.0591 226.1 91.1789C224.722 91.5402 223.436 92.3528 222.017 92.5523C221.883 92.5711 221.448 92.4012 221.443 92.4022C220.889 92.5295 220.428 93.1343 219.952 93.4243C218.928 94.0483 217.456 94.153 216.72 95.23C219.103 96.9292 221.17 95.244 223.264 93.9609C224.519 93.1927 225.866 92.6383 227.237 92.1457C227.953 91.8885 228.676 91.621 229.402 91.3952C229.703 91.2799 230.012 91.197 230.329 91.1461C230.624 91.0844 230.835 91.1973 230.963 91.4852C231.841 91.4545 231.916 90.8749 232.444 91.956C233.189 93.4802 232.049 93.4028 230.978 93.5901C229.493 93.8494 227.982 94.4334 226.518 94.8206C226.18 94.91 223.22 95.6322 223.216 95.6578C223.082 96.641 231.579 95.7304 232.308 95.5831C233.595 95.3224 234.976 94.5825 236.308 94.7609C237.332 94.8977 239.662 96.4772 238.03 97.5266C237.709 95.9082 236.606 97.2448 236.03 97.791C235.263 98.518 234.164 98.448 233.112 98.7329C231.673 99.1218 227.989 100.581 226.968 98.7206C227.291 100.351 221.419 99.5226 220.612 99.4687C219.825 99.4158 218.809 99.5919 218.049 99.3558C217.553 99.2019 217.277 98.8625 216.81 98.7861C216.695 98.9157 216.558 99.0041 216.399 99.0508C216.162 98.9249 215.948 98.7646 215.758 98.5705C214.185 97.8101 211.752 97.3898 212.626 94.9673C213.45 92.6826 216.395 91.2768 218.394 90.4382ZM233.133 91.8503C233.172 91.708 233.211 91.5657 233.25 91.4231C233.255 91.8595 234.244 92.0457 234.13 92.611C233.876 93.8627 232.735 91.9819 232.637 91.7769C232.803 91.8015 232.967 91.8257 233.133 91.8503ZM239.17 93.9299C239.285 94.4426 240.6 95.5343 240.274 95.7861C239.755 95.0444 238.322 95.3811 239.17 93.9299ZM216.988 140.715C217.47 139.71 218.925 141.421 218.771 139.705C219.563 139.781 219.069 140.414 220.017 140.136C220.372 140.032 220.613 139.617 221.046 139.522C221.161 139.496 221.66 139.538 221.832 139.532C222.403 139.514 224.638 139.447 223.099 138.66C223.96 138.061 224.066 138.365 224.844 138.914C224.644 137.779 225.788 138.423 226.32 138.565C225.94 137.918 226.883 137.229 227.188 136.792C227.079 137.466 227.136 138.22 228.063 137.789C228.294 137.682 228.242 137.206 228.425 137.128C228.76 136.986 228.948 137.244 229.068 137.23C229.187 137.216 229.436 137.286 229.685 137.187C230.008 137.059 229.852 136.603 230.262 136.535C230.528 136.491 230.723 136.904 231.049 136.907C231.216 136.909 231.496 136.73 231.623 136.74C231.645 136.741 231.804 136.337 232 136.327C232.286 136.313 232.402 137.119 232.507 137.276C233.007 138.023 233.673 138.51 234.44 138.908C233.052 140.248 230.25 140.106 228.503 140.558C227.557 140.803 226.75 141.156 225.884 141.611C225.676 141.754 225.496 141.929 225.345 142.137C225.223 142.052 225.1 141.966 224.977 141.88C224.503 141.911 224.054 141.664 223.52 141.759C221.871 142.052 220.579 143.352 218.903 143.641C218.15 143.772 217.531 143.953 217.041 143.266C216.61 142.664 216.681 141.355 216.988 140.715ZM214.727 132.707C215.1 133.04 214.651 134.122 215.374 134.005C215.888 133.921 215.786 133.083 216.189 132.905C216.719 132.672 217.038 133.225 217.536 133.174C218.465 133.078 218.411 132.225 217.627 131.85C218.443 131.624 218.704 132.638 219.426 132.629C220.374 132.617 220.148 131.44 220.955 131.245C221.304 131.16 221.188 131.7 221.414 131.767C221.868 131.901 222.184 131.671 222.586 131.469C222.945 131.287 223.201 130.937 223.593 130.819C223.772 130.764 224.226 130.864 224.357 130.763C224.621 130.56 224.858 129.771 225.118 129.667C225.065 129.688 225.917 130.137 226.04 130.18C225.965 130.513 225.791 130.553 225.519 130.299C225.519 131.051 227.506 131.285 227.098 130.356C228.173 130.824 227.372 131.065 227.265 131.718C227.222 131.981 227.077 131.973 227.12 132.251C227.14 132.379 227.703 132.269 227.696 132.443C227.649 133.566 224.248 133.911 223.604 134.01C222.27 134.215 221.008 134.56 219.722 134.985C218.764 135.301 217.114 136.207 216.096 136.15C214.63 136.07 214.439 134.058 214.727 132.707ZM211.453 121.251C211.096 120.002 212.242 117.422 213.735 117.744C214.102 117.823 214.192 118.143 214.477 118.285C214.874 118.484 215.521 118.379 215.865 118.584C216.638 119.045 216.249 120.217 217.023 120.641C215.8 120.953 212.021 123.236 211.453 121.251ZM212.868 126.103C213.394 125.805 214.248 125.767 214.607 125.194C214.786 125.325 215.124 126.116 215.444 125.995C215.594 125.938 215.749 125.509 215.738 125.51C216.024 125.501 216.081 125.094 216.517 125.14C216.918 125.182 217.367 125.689 217.724 125.878C217.662 124.621 217.969 124.501 218.937 123.829C219.149 123.681 219.327 123.128 219.523 122.904C219.335 124.223 219.807 124.23 220.808 124.428C222.063 124.677 222.845 125.386 223.348 126.661C222.278 126.442 220.899 126.706 220.478 127.915C219.624 126.275 216.523 128.538 215.519 129.002C214.775 129.346 213.908 129.809 213.284 129.007C212.844 128.442 213.096 127.762 213.106 127.261C213.108 127.103 213.263 127.094 213.249 126.859C213.23 126.559 212.86 126.44 212.868 126.103ZM224.283 151.901C224.001 152.013 222.547 152.076 222.538 151.57C222.53 151.122 225.103 151.573 224.283 151.901ZM221.922 150.262C220.823 150.975 219.592 148.462 219.188 147.738C220.341 147.893 220.905 146.878 221.584 146.106C222.231 147.597 223.212 146.809 224.245 146.311C225.463 145.724 226.797 145.72 228.045 145.248C228.434 145.101 228.793 144.883 229.173 144.715C229.479 144.594 229.784 144.471 230.088 144.344C230.304 144.139 230.381 143.887 230.318 143.588C230.216 143.337 230.285 143.179 230.527 143.113C230.814 143.203 231.107 143.256 231.407 143.27C231.888 143.17 232.578 142.692 231.998 142.178C232.62 141.584 233.243 142.174 233.842 142.435C233.699 142.008 233.558 141.581 233.415 141.154C233.712 141.287 234.594 142.583 234.684 142.576C235.254 142.531 235.195 141.726 235.522 141.402C235.711 141.647 235.765 143.476 236.508 142.86C236.826 142.596 236.142 141.699 235.973 141.495C236.823 141.697 237.566 142.765 237.795 143.594C237.392 143.655 237.019 143.57 236.676 143.337C236.457 144.491 238.488 144.024 238.816 144.627C239.46 145.808 235.272 146.628 234.726 146.737C233.634 146.956 232.346 147.038 231.345 147.547C230.386 148.035 230.159 148.174 229.038 148.266C227.759 148.37 226.511 148.813 225.274 149.159C224.2 149.458 222.875 149.644 221.922 150.262ZM245.299 107.997C246.309 107.615 249.71 105.63 250.576 106.513C250.485 106.419 251.201 107.976 251.193 107.878C251.255 108.687 251.236 109.013 250.289 109.401C249.611 109.679 249.02 109.088 248.41 109.323C247.74 109.58 248.208 110.036 247.863 110.354C247.485 110.703 246.757 110.854 246.286 111.007C245.134 111.381 243.974 111.694 242.828 112.097C240.496 112.918 238.026 113.681 235.629 114.261C233.838 114.695 230.799 115.773 229.148 114.5C228.987 115.224 228.594 115.125 228.047 115.23C227.618 115.313 226.842 115.536 226.461 115.548C225.827 115.567 224.063 115.392 224.305 114.456C224.239 114.714 225.677 113.831 225.428 113.776C226.04 113.911 225.842 113.587 226.342 113.407C226.996 113.172 227.68 113.185 228.347 112.936C230.03 112.308 231.442 111.493 233.218 111.1C237.276 110.202 241.384 109.479 245.299 107.997ZM82.639 204.743C82.3102 204.752 82.0544 203.77 83.0546 204.471C82.9162 204.562 82.7777 204.652 82.639 204.743ZM74.7377 203.471C74.2907 203.592 74.1123 203.329 74.2034 202.684C74.8269 202.425 75.0049 202.687 74.7377 203.471ZM68.6379 202.155C68.5234 201.58 68.9287 201.45 69.2961 201.192C69.2591 201.954 69.2591 201.954 68.6379 202.155ZM53.29 197.422C52.6717 197.279 51.8479 196.643 51.7062 197.711C51.6028 197.464 51.075 196.3 51.3016 196.031C51.4199 195.89 51.868 196.542 51.8203 196.477C52.3615 195.326 53.2942 196.715 53.8156 197.126C53.6405 197.225 53.4651 197.324 53.29 197.422ZM214.043 70.1418C214.256 69.6669 214.508 69.5161 214.797 69.6898C214.343 70.8005 212.803 71.4027 214.043 70.1418ZM224.739 59.715C225.12 60.4672 224.547 60.7852 224.137 61.4105C224.377 60.736 224.543 60.2687 224.739 59.715ZM271.225 133.145C272.6 133.144 275.53 132.38 276.359 134.035C276.908 132.911 277.532 135.019 278.008 135.357C278.062 135.395 278.405 135.119 278.564 135.22C278.805 135.374 279.012 135.791 279.15 136.039C279.566 136.787 279.744 137.676 279.974 138.499C277.572 138.499 275.109 137.91 272.709 137.696C271.134 137.556 269.589 137.552 268.011 137.641C267.698 137.659 267.075 137.55 266.807 137.612C266.535 137.675 266.041 138.259 265.741 138.165C266.207 139.086 272.182 141.317 272.638 140.297C272.098 139.953 270.899 139.689 270.9 138.858C270.9 137.927 272.025 137.928 272.621 137.956C273.924 138.016 276.107 138.472 276.641 139.898C276.87 140.51 276.94 142.049 276.689 142.639C276.526 143.02 276.251 143.478 275.816 143.556C275.637 143.587 275.38 143.337 275.352 143.343C274.458 143.543 272.803 144.299 271.828 143.233C271.125 144.191 267.737 143.145 266.7 142.784C264.886 142.152 262.389 141.284 261.287 139.504C259.944 137.333 262.674 135.499 264.242 134.617C266.385 133.411 268.833 133.146 271.225 133.145ZM280.378 138.163C280.8 138.288 281.221 138.414 281.643 138.539C281.53 139.317 279.867 138.701 280.378 138.163ZM293.123 166.436C293.252 163.32 292.396 160.575 291.902 157.561C291.779 156.814 291.904 155.508 291.365 154.893C290.85 154.306 289.7 154.783 289.654 153.745C289.147 154.37 289.198 154.501 288.572 153.782C288.686 154.09 288.703 154.404 288.622 154.723C288.234 154.489 286.827 153.712 286.946 154.775C285.789 154.505 286.124 153.744 285.464 153.163C285.371 153.081 284.994 153.374 284.847 153.249C284.582 153.023 284.451 152.817 284.227 152.526C283.943 152.888 283.556 153.149 283.208 153.435C283.006 152.972 282.613 152.632 282.14 152.52C282.582 153.493 283.675 154.753 282.176 155.306C281.282 155.637 279.816 155.232 278.869 155.309C275.358 155.595 271.512 154.79 268.117 153.91C264.629 153.006 261.103 151.73 257.966 149.864C257.298 149.466 256.876 148.996 256.301 148.502C255.741 148.023 255.334 147.947 254.661 147.64C253.45 147.088 252.343 146.203 251.422 145.216C249.441 143.095 247.601 140.32 248.152 137.214C248.702 134.118 250.725 131.699 252.889 129.66C255.445 127.252 258.331 125.242 261.393 123.621C262.763 122.897 266.265 120.175 267.618 121.768C268.483 122.785 267.997 124.083 266.815 124.309C266.524 124.365 266.219 124.159 265.925 124.3C265.5 124.504 265.649 124.744 265.474 124.913C265.17 125.208 264.846 125.667 264.391 125.922C262.803 126.813 261.269 127.519 259.751 128.604C259.051 129.103 258.378 129.318 257.761 129.755C257.148 130.188 257.008 130.906 256.184 130.463C256.477 131.725 254.714 133.077 254.022 133.85C252.951 135.048 251.668 136.576 252.167 138.348C253.145 141.816 257.565 144.45 260.393 145.974C263.922 147.877 267.815 149.391 271.744 150.018C273.698 150.329 275.717 150.522 277.686 150.719C279.218 150.873 281.57 150.31 282.673 151.762C282.707 150.068 287.734 150.218 288.804 150.001C286.658 142.286 282.447 135.427 277.944 129.018C275.734 125.872 273.564 122.637 271.045 119.753C268.287 116.595 265.136 113.774 262.143 110.868C256.271 105.17 249.63 100.085 242.873 95.6049C236.131 91.1356 229.149 86.7368 221.763 83.5502C213.327 79.9108 204.446 77.517 195.555 75.4783C196.761 73.8613 198.723 73.0726 200.267 71.8895C200.808 71.4753 201.539 70.4812 202.241 70.3454C203.002 70.1981 203.6 71.0591 204.142 71.4913C205.696 72.7318 206.771 72.205 208.551 72.1303C209.616 72.0856 212.138 72.7096 212.587 71.1939C213.184 72.0304 212.318 72.7011 211.875 73.3144C212.197 73.7879 212.457 73.2967 212.776 73.2227C212.874 73.137 212.972 73.0511 213.071 72.9654C213.229 72.7246 213.371 72.7232 213.498 72.9607C213.688 73.2616 213.879 73.195 214.072 72.7608C214.125 72.726 214.177 72.6908 214.23 72.656C214.46 72.5271 214.683 72.3231 214.897 72.1624C216.514 70.9462 217.956 69.9101 219.741 69.0143C221.241 68.2624 220.434 66.8238 221.423 65.8079C221.646 65.5779 222.023 65.6932 222.262 65.4984C222.496 65.3071 222.532 65.0901 222.702 64.8851C223.113 64.3921 222.624 63.82 223.672 64.4235L223.294 62.1852C225.349 64.2826 225.341 58.247 225.621 57.3539C225.584 57.472 225.806 56.558 225.806 56.5659C225.866 54.7547 226.101 53.442 224.085 53.3369C224.848 52.8317 225.082 53.8183 225.434 52.7969C225.61 52.2852 225.06 51.4057 225.938 51.7356C226.123 50.648 225.94 49.7679 225.71 48.711C225.474 47.6292 225.612 46.9074 225.623 45.8256C225.635 44.5985 225.089 43.3652 224.914 42.1569C224.777 41.2106 224.918 39.7181 223.756 40.0657C223.592 39.7965 224.167 38.9686 224.143 38.5592C224.107 37.9233 223.451 37.2772 223.265 36.6665C222.992 36.9633 222.607 37.0622 222.235 36.9282C222.584 36.0985 222.256 35.8198 221.922 35.1044C221.73 34.6947 221.846 34.2423 221.436 33.9486C221.201 33.7801 220.8 34.0639 220.616 33.8664C220.221 33.4434 220.367 32.8822 220.095 32.3247C219.755 31.6257 218.976 31.0918 218.44 30.5672C215.424 27.6179 212.149 25.364 208.138 24.2116C204.091 23.049 199.374 22.6324 195.341 23.9735C193.729 24.5094 192.298 24.4545 190.847 25.4554C190.376 25.7802 190.326 25.6932 190.087 26.2346C190.032 26.3608 190.532 26.6969 190.226 26.9032C189.892 27.1274 189.524 26.6716 189.355 26.2933C187.256 27.8919 185.289 30.023 184.094 32.4667C182.906 34.8949 182.797 37.7476 182.343 40.3864C180.251 37.8714 177.421 36.6658 174.345 37.8748C171.663 38.9283 169.585 41.244 169.06 44.244C168.74 46.0729 169.09 47.925 169.879 49.5751C170.221 50.2881 170.634 51.0775 171.262 51.5575C171.758 51.9369 172.608 51.8837 172.842 52.568C173.2 53.6163 171.131 55.8805 170.594 56.7982C169.622 58.4589 168.719 60.1738 168.032 61.9877C165.568 58.3248 163.209 54.3242 160.406 50.9469C157.762 47.7592 154.609 44.9004 151.517 42.206C145.099 36.614 138.426 31.3603 131.247 26.9053C124.563 22.757 116.489 20.4539 108.698 21.2682C101.087 22.0641 95.2592 27.1294 90.3554 32.9716C80.9264 44.2045 75.1515 60.2148 74.5873 75.1675C74.4177 79.6594 74.7429 84.0926 75.7973 88.4494C76.2995 90.5239 76.2266 92.5643 76.5184 94.6654C76.8478 97.0357 77.4174 99.3974 77.9683 101.719C80.0666 110.564 82.7401 119.402 85.7401 127.954C87.2999 132.401 89.1872 136.749 91.7404 140.67C92.9196 142.482 94.4473 143.899 95.7163 145.619C96.9474 147.287 97.2726 149.335 97.5433 151.382C98.1924 156.29 98.6229 161.219 99.0133 166.155C99.179 168.247 99.3725 170.321 99.6358 172.399C99.8654 174.21 99.2879 174.121 97.8396 174.736C98.1334 173.109 91.2139 174.216 90.5606 174.327C89.8496 174.448 89.0968 174.45 88.5368 174.546C87.9108 174.653 87.298 174.808 86.5769 174.787C85.5171 174.754 83.5325 174.47 83.1279 175.893C82.8494 174.243 81.0098 176.047 82.3708 175.741C80.9738 175.906 79.5482 175.632 78.1343 175.77C76.5138 175.929 74.8794 176.079 73.2703 176.336C72.1502 176.514 71.0812 176.969 69.9591 177.1C68.5231 177.269 67.0246 177.253 65.5747 177.388C60.2267 177.884 54.6835 179.112 49.485 180.517C48.3074 180.835 46.9545 181.062 45.8294 181.573C45.5282 181.709 45.2572 182.015 44.9686 182.132C44.4849 182.329 44.551 182.193 44.1214 182.283C41.5475 182.824 38.8921 183.709 36.3185 184.402C34.8909 184.788 32.5689 185.135 31.4043 186.183C30.8823 186.653 30.4261 187.485 31.2626 188.019C31.9308 188.445 32.8847 187.765 33.4255 187.397C32.9437 188.718 32.0349 189.377 32.5258 190.88C32.9132 192.068 33.7879 193.531 35.1338 192.765C35.314 193.206 35.387 194.084 35.9177 194.246C36.3947 194.392 36.74 193.756 37.2072 193.905C37.3745 193.959 37.3109 194.292 37.4607 194.379C37.7188 194.528 37.9804 194.591 38.2761 194.697C38.5303 194.788 38.9395 194.974 39.2047 194.994C39.3729 195.006 39.7695 194.703 39.7682 194.703C40.1546 194.765 40.3625 195.543 40.6406 195.768C41.0018 196.06 41.3001 196.127 41.7524 196.232C42.6926 196.452 43.9045 196.829 44.5251 195.816C44.3831 196.539 45.3178 196.468 45.7302 196.56C45.6845 196.179 45.4845 195.83 45.1758 195.621C46.0979 195.685 45.7241 196.649 46.4056 196.904C46.8912 197.085 46.8361 196.625 47.2077 196.573C47.6973 196.506 48.0688 196.88 48.8333 196.535C48.999 197.31 49.0596 198.091 49.9639 198.207C50.4946 198.275 51.7322 197.266 51.6621 198.106C52.8478 197.74 53.2978 197.987 53.9174 199.087C54.0221 198.412 54.5289 198.607 54.9938 198.566C55.7307 198.5 55.7496 198.562 56.3208 198.123C56.373 198.083 56.8224 197 57.0221 197.673C57.1119 197.975 56.5183 198.684 56.2985 198.865C56.5714 199.01 57.466 199.519 57.81 199.425C58.1076 199.344 58.1086 198.809 58.4662 198.781C58.3786 199.089 58.2914 199.397 58.2036 199.705C58.8993 199.811 59.4807 199.321 60.0302 198.963C60.5541 200.356 62.0517 199.571 62.8662 200.62C63.297 201.175 63.3171 201.597 64.1381 201.742C64.9781 201.89 65.7118 201.502 66.4258 202.231C66.1994 201.779 65.6356 201.404 66.1959 200.918C66.5772 201.487 66.774 202.173 67.2136 202.702C67.2742 202.433 67.3349 202.164 67.3955 201.894C68.5416 203.184 69.9844 203.195 71.4524 203.911V202.967C72.5036 204.655 72.5596 203.586 73.8153 202.897C73.7301 203.393 73.6445 203.89 73.5592 204.386C74.4628 204.314 75.3071 205.441 76.0489 204.484C76.497 205.274 77.04 204.885 77.7744 205.136C78.192 205.279 78.5029 205.712 78.9091 205.868C79.5184 206.103 79.7002 206.092 80.2738 206.296C80.7838 206.478 81.0736 206.831 81.712 206.945C82.1267 207.018 82.5028 207.013 82.8996 206.993C83.053 206.985 83.0024 206.622 83.3432 206.707C83.87 206.838 84.2623 207.533 84.6417 207.89C85.2123 206.38 86.81 208.402 87.5823 208.671C87.6562 208.284 87.643 207.818 87.9091 207.5C88.2217 208.221 88.341 208.826 88.9898 209.29C89.3642 209.558 89.9141 209.75 90.3466 209.847C90.6199 209.909 91.1166 209.835 91.2885 209.924C91.5816 210.075 91.6895 210.479 91.9855 210.516C92.1596 210.539 92.4177 210.057 92.5481 210.094C93.1446 210.265 93.476 211.028 94.0784 211.44C95.871 212.667 98.1269 212.786 100.124 213.056C100.625 213.123 100.698 212.979 101.105 213.288C101.322 213.454 101.224 213.957 101.491 214.097C102.498 214.628 102.498 213.496 102.709 212.792C103.042 213.254 103.1 213.864 103.555 214.232C103.804 214.225 104.053 214.231 104.301 214.25C104.441 214.418 104.533 214.612 104.576 214.832C105.179 215.261 105.862 215.112 106.485 215.433C106.69 215.539 107.051 216.176 107.303 216.36C107.753 216.688 108.45 216.863 108.964 217.006C110.043 217.305 111.59 216.907 112.232 218.093C113.085 217.132 112.755 218.28 113.334 218.521C113.675 218.663 114.189 218.097 114.568 218.153C115.251 218.254 115.497 219.032 115.715 219.597C116.131 219.5 115.845 218.262 115.834 217.991C116.35 217.927 116.465 219.358 116.554 219.672C117.37 219.259 116.031 217.974 116.908 217.561C116.828 218.657 117.657 219.559 116.176 219.715C116.38 220.375 121.159 221.108 121.491 220.526C121.565 221.602 122.252 220.597 122.506 220.228C122.534 220.856 122.331 221.748 123.001 222.04C123.456 222.238 124.482 221.725 124.661 221.256C124.865 221.973 125.207 221.95 125.631 222.405C125.923 222.718 126.115 223.26 126.421 223.522C126.985 224.004 128.032 223.931 128.688 223.823C129.972 223.612 129.821 223.353 130.278 224.757C130.381 224.224 130.706 223.11 131.271 223.939C131.631 224.465 130.865 225.625 130.643 226.087C131.138 225.802 131.629 225.462 132.192 225.339C132.224 225.522 132.253 225.909 132.17 226.078C132.186 226.044 132.787 226.467 133.01 226.585C132.956 226.556 133.186 225.502 133.179 225.536C133.971 226.051 133.422 227.034 134.123 227.541C134.305 227.673 134.73 227.52 134.949 227.599C135.331 227.739 135.661 228.115 136 228.335C135.729 227.953 135.768 227.311 135.787 226.87C135.959 226.971 136.082 227.346 136.256 227.376C136.322 227.387 137.005 227.482 137 227.479C137.71 228.002 137.564 228.068 136.954 228.697C137.172 229.057 138.083 228.431 138.329 228.327C138.381 228.468 138.394 228.98 138.491 229.071C138.55 229.223 138.609 229.374 138.668 229.526C138.85 229.383 139.045 229.335 139.253 229.383C139.385 229.431 140.412 229.871 140.482 229.72C140.257 229.644 140.053 229.526 139.871 229.369C140.464 228.808 140.854 228.51 141.4 229.319C141.469 229.421 141.233 229.788 141.303 229.921C141.564 230.416 142.1 230.81 142.464 231.214C142.615 230.657 142.264 229.262 143.101 229.313C143.77 229.353 144.279 231.058 144.047 231.588C144.313 231.282 145.901 230.978 146.2 231.074C147.047 231.344 146.81 232.168 147.852 230.96C148.563 231.476 147.936 231.672 148.064 232.301C148.252 232.342 148.43 232.294 148.598 232.155C148.472 234.828 150.347 232.785 151.565 233.194C152.043 233.354 152.165 233.925 152.678 234.092C152.949 234.18 153.251 233.971 153.515 234.022C153.726 233.99 153.936 233.951 154.145 233.904C154.41 233.765 154.534 233.921 154.518 234.372C154.943 234.604 154.782 234.695 155.28 234.74C155.6 234.77 155.895 234.419 156.259 234.479C156.887 234.582 156.804 235.09 157.205 235.355C157.566 235.593 157.973 235.586 158.418 235.54C158.645 235.516 159.281 235.209 159.358 235.208C159.833 235.201 159.575 235.094 160.146 235.524C160.59 235.859 160.777 236.076 161.322 236.23C161.947 236.406 163.057 236.792 163.478 236.317C164.046 237.213 164.491 236.555 165.241 236.614C165.625 236.645 165.686 236.802 166.028 236.865C166.582 236.967 167.273 236.879 167.862 237.078C168.79 237.392 168.895 237.549 169.843 237.592C170.015 237.521 170.186 237.451 170.357 237.38C170.408 237.681 170.542 237.926 170.761 238.116C171.291 238.233 171.64 237.951 172.078 237.643C172.404 238.712 173.462 238.805 174.367 238.946C175.828 239.172 177.225 239.296 178.633 239.801C179.823 240.228 181.014 240.707 182.159 241.253C183.166 241.734 184.116 242.452 185.255 242.115C187.837 241.35 190.338 238.562 192.498 236.961C195.056 235.065 197.815 233.503 200.488 231.798C211.128 225.011 222.37 219.27 232.862 212.231C238.59 208.388 243.905 203.821 250.056 200.712C249.18 204.52 247.69 208.385 247.959 212.371C248.067 213.978 248.517 215.876 249.701 216.997C251.165 218.384 252.795 217.501 254.195 216.51C257.195 214.388 259.196 211.291 261.441 208.383C264.097 204.943 266.157 201.247 268.107 197.326C268.574 198.016 268.219 199.172 268.225 199.938C268.234 200.914 268.485 201.855 268.915 202.726C270.026 204.976 272.14 205.521 274.05 203.98C277.726 201.014 279.859 195.731 281.829 191.477C282.952 193.676 284.547 196.444 287.244 194.874C289.47 193.578 290.778 190.682 291.459 188.229C293.447 181.069 292.817 173.775 293.123 166.436Z" fill="#C9C9C9"/>
<path fill-rule="evenodd" clip-rule="evenodd" d="M289.747 123.428C289.493 122.78 289.381 122.886 289.848 122.257C290.212 122.634 289.921 122.945 289.747 123.428ZM300.997 162.699C300.283 160.563 300.724 158.244 300.291 156.054C300.092 155.049 299.777 154.074 299.664 153.051C299.614 152.596 299.23 150.553 299.492 150.231C298.686 149.718 298.684 149.338 298.497 148.332C298.784 148.012 298.748 147.739 298.389 147.512C298.154 147.213 297.919 146.914 297.684 146.615C298.712 147.143 298.104 145.791 297.999 145.011C297.916 144.395 297.86 143.752 297.665 143.162C297.425 142.436 296.891 142.069 298.002 142.069C297.636 141.631 297.089 141.179 296.907 140.643C296.645 139.872 297.077 138.853 296.543 138.171C296.245 137.791 294.709 137.643 294.979 136.822C295.116 136.404 295.738 136.716 295.931 136.423C296.688 135.271 294.453 134.794 294.343 134.304C294.201 133.669 295.009 133.527 295.058 132.933C295.106 132.351 294.248 131.396 294.021 130.876C293.711 130.956 293.372 131.47 293.018 131.224C292.951 131.178 293.052 129.166 292.971 128.898C292.892 128.636 292.731 127.939 292.673 127.81C292.444 127.298 291.788 127.049 291.684 126.444C291.621 126.083 292.966 125.536 291.424 125.519C291.978 124.492 290.963 123.869 290.594 122.991C290.119 121.863 289.84 120.644 289.352 119.51C288.878 118.408 288.348 117.362 287.664 116.388C287.046 115.505 286.778 114.656 286.284 113.724C286.185 113.642 286.086 113.56 285.987 113.479C285.575 113.541 285.442 113.344 285.59 112.886C285.275 112.394 285.04 111.869 284.762 111.356C284.439 110.759 284.003 110.273 283.669 109.693C283.226 108.923 283.095 108.056 282.594 107.284C281.978 106.335 281.286 105.498 280.715 104.513C279.999 103.279 279.207 102.512 278.307 101.556C277.879 101.101 277.828 99.9645 277.303 99.3183C276.731 98.6145 276.167 98.4238 275.77 97.5C275.255 96.2982 274.498 95.7244 273.762 94.6856C273.155 93.8286 272.858 92.8437 272.189 92.0147C271.613 91.3028 270.96 90.6522 270.346 89.9771C269.57 89.1246 268.997 88.0885 268.19 87.2779C268.307 87.3949 267.488 86.712 267.529 86.7338C267.347 86.6366 266.763 86.5585 266.848 86.6113C265.629 85.8577 264.103 83.0996 262.269 84.561C261.305 85.3296 261.767 86.7393 262.441 87.5048C262.73 87.8337 264.233 89.4548 264.557 88.7711C264.908 89.2938 265.987 91.8203 266.885 91.0964C266.793 91.9598 267.269 91.6733 267.583 92.257C267.789 92.6421 267.689 92.8311 267.839 93.4322C268.253 95.0847 269.833 96.6987 270.674 98.1397C272.768 101.726 275.078 105.128 277.174 108.718C279.172 112.14 281.409 115.387 283.325 118.855C285.505 122.799 288.221 126.522 289.863 130.773C289.918 130.916 290.374 131.142 290.488 131.357C290.685 131.73 290.643 132.374 290.77 132.797C291.21 134.261 291.925 135.702 292.738 136.915C293.452 137.979 293.504 139.425 293.995 140.673C294.688 142.433 295.42 144.174 296.093 145.942C297.141 148.694 297.85 151.331 298.574 154.205C299.043 156.067 299.417 157.928 299.566 159.85C299.704 161.618 299.737 163.46 300.359 165.134C300.783 164.445 301.283 163.552 300.997 162.699Z" fill="#C9C9C9"/>
<path fill-rule="evenodd" clip-rule="evenodd" d="M61.3548 200.587C60.602 200.427 59.8936 200.213 59.7341 199.304C59.6248 199.733 59.5159 200.162 59.4066 200.59C60.3232 200.809 61.2401 201.027 62.1566 201.246C61.9427 200.849 61.7864 200.679 61.3548 200.587Z" fill="#C9C9C9"/>
<path fill-rule="evenodd" clip-rule="evenodd" d="M63.3749 51.3216C63.432 51.0651 63.5059 50.8136 63.597 50.5684C63.6589 50.8075 63.9624 51.3247 63.7857 51.5502C63.5607 51.8364 63.3331 51.6744 63.3749 51.3216ZM67.0655 43.9331C67.3125 44.0477 67.8472 44.0699 68.1539 44.1668C67.3582 44.8869 67.2182 44.6751 66.1894 44.5915C66.1437 43.8628 66.4251 43.6366 67.0655 43.9331ZM60.169 61.9722C60.2757 61.9752 60.3827 61.978 60.49 61.9807C60.4965 61.6634 60.4887 61.3465 60.466 61.0299C61.5508 61.2793 60.9368 59.2846 60.596 58.8712C61.6543 58.9083 62.1698 55.3829 62.505 54.7037C62.8027 54.1006 63.1398 53.8672 63.3574 53.1317C63.5477 52.488 63.7536 51.9087 64.0282 51.2998C64.6591 49.8997 65.4869 48.6283 65.3342 46.9966C65.8688 48.2209 66.3389 46.9986 66.678 46.4132C67.2243 45.4699 68.5572 44.2664 68.6989 43.146C68.824 42.1598 68.1276 42.1076 68.5387 41.193C68.9544 40.2671 69.2961 40.3599 70.0243 40.0638C70.5087 39.8666 70.605 40.1061 70.9467 39.4627C71.1681 39.0462 71.09 38.7357 71.3737 38.3942C71.4907 38.5013 71.624 38.5457 71.7731 38.5273C72.0033 38.2076 72.1544 37.8515 72.2261 37.4588C72.4138 36.9287 72.5046 36.4418 72.7873 35.9369C73.0554 35.4587 73.5314 34.179 73.7836 33.9484C74.0514 33.7035 75.5704 33.828 75.5639 33.8369C76.1913 33.0065 75.04 32.1792 76.6341 32.3542C76.3193 31.7374 77.4252 30.9719 77.7462 30.6287C78.548 29.7721 78.6119 29.3757 78.7811 28.2984C78.867 27.7491 78.3061 27.8126 79.058 27.6874C79.3689 27.6358 79.6672 28.0541 79.8916 27.9927C80.8821 27.7225 79.8459 27.774 80.1192 27.3493C80.2054 27.2145 80.646 26.6707 80.6418 26.6765C80.6204 26.7038 80.741 26.2034 80.8409 26.0748C81.0302 26.0577 81.2167 26.0229 81.3998 25.9704C81.4929 25.7725 81.5752 25.5699 81.6466 25.3625C82.3634 24.7334 83.4359 24.4519 83.9317 23.7608C84.2523 23.3139 84.1563 22.8762 84.5707 22.4306C84.9653 22.0063 85.4873 22.3136 85.5654 21.355C85.6649 20.1354 84.4199 19.5927 83.9106 20.8235C82.5294 19.0335 76.7564 25.6009 76.0895 26.4589C73.1926 30.1835 70.3453 34.0003 67.9691 38.1189C65.6538 42.1322 63.7536 46.3549 62.2683 50.7812C61.5521 52.9154 61.1161 55.0401 60.6787 57.2477C60.5318 57.9869 59.4343 61.2814 59.8912 62.0186C59.9836 62.0032 60.0763 61.9875 60.169 61.9722Z" fill="#C9C9C9"/>
<path fill-rule="evenodd" clip-rule="evenodd" d="M288.194 153.31C288.682 152.968 288.682 152.968 288.767 152.321C288.113 152.446 288.113 152.446 288.194 153.31Z" fill="#C9C9C9"/>
<path fill-rule="evenodd" clip-rule="evenodd" d="M47.6769 196.851C47.6834 196.85 47.6882 196.852 47.6919 196.856C47.681 196.841 47.6415 196.797 47.6769 196.851Z" fill="#C9C9C9"/>
<path fill-rule="evenodd" clip-rule="evenodd" d="M47.3489 197.196C47.4997 197.539 47.7418 197.625 48.0758 197.452C48.2074 197.649 46.9339 196.217 47.3489 197.196Z" fill="#C9C9C9"/>
<path fill-rule="evenodd" clip-rule="evenodd" d="M69.3717 40.7145C68.6075 42.2909 69.5646 41.1443 69.5156 41.6564C69.5477 41.32 69.6803 40.8407 69.3717 40.7145Z" fill="#C9C9C9"/>
<path fill-rule="evenodd" clip-rule="evenodd" d="M193.61 65.1137C193.941 67.9404 197.616 66.6035 198.443 64.8936C199.045 63.6488 200.565 58.7298 198.929 57.6907C197.717 56.9204 197.458 60.2404 197.159 60.9821C196.658 62.2242 196.266 61.344 195.153 61.6627C193.924 62.0144 193.473 63.9415 193.61 65.1137Z" fill="#C9C9C9"/>
<path fill-rule="evenodd" clip-rule="evenodd" d="M189.594 59.9398C190.908 60.2468 192.195 60.0885 193.128 58.9969C193.645 58.3923 194.333 57.1932 193.402 56.6081C192.559 56.0783 191.603 57.3191 190.715 57.0626C189.507 56.7136 190.129 55.351 189.715 54.4511C188.192 55.3735 187.343 59.4137 189.594 59.9398Z" fill="#C9C9C9"/>
<path fill-rule="evenodd" clip-rule="evenodd" d="M190.956 67.0773C189.69 67.0746 189.679 68.7135 190.34 69.4159C190.973 70.088 192.572 70.7682 193.43 70.2456C195.122 69.2139 191.981 67.1838 190.956 67.0773Z" fill="#C9C9C9"/>
<path fill-rule="evenodd" clip-rule="evenodd" d="M117.271 132.249C117.542 132.387 118.339 133.098 118.674 132.777C118.2 132.274 117.726 131.772 117.252 131.269C116.99 131.572 116.811 132.013 117.271 132.249Z" fill="#C9C9C9"/>
<path fill-rule="evenodd" clip-rule="evenodd" d="M111.286 60.3486C111.152 60.4544 111.017 60.5598 110.882 60.6652C111.337 61.0633 111.325 61.1817 111.783 60.8047C111.647 60.6164 111.482 60.4646 111.286 60.3486Z" fill="#C9C9C9"/>
<path fill-rule="evenodd" clip-rule="evenodd" d="M197.117 154.135C196.862 153.654 196.381 154.541 196.056 154.685C195.527 154.919 195.093 153.678 195.245 155.166C194.049 154.59 193.323 155.912 192.551 156.6C191.462 157.573 190.129 158.101 189.402 159.483C192.823 160.325 196.583 157.221 199.134 155.182C199.55 154.849 201.631 153.17 200.221 153.008C199.644 152.941 197.545 154.943 197.117 154.135Z" fill="#C9C9C9"/>
<path fill-rule="evenodd" clip-rule="evenodd" d="M196.102 151.221C196.772 150.665 195.327 150.614 195.098 150.556C195.118 150.998 195.137 151.439 195.157 151.881C195.48 151.675 195.796 151.454 196.102 151.221Z" fill="#C9C9C9"/>
<path fill-rule="evenodd" clip-rule="evenodd" d="M193.584 153.073C193.785 152.942 194.343 152.53 193.963 152.224C193.62 152.454 193.374 152.829 193.321 153.257C193.408 153.196 193.496 153.135 193.584 153.073Z" fill="#C9C9C9"/>
<path fill-rule="evenodd" clip-rule="evenodd" d="M138.171 117.25C137.743 117.427 137.551 117.706 137.596 118.089C138.254 117.947 138.129 117.293 138.171 117.25Z" fill="#C9C9C9"/>
</g>
<defs>
<clipPath id="clip0_21_323">
<rect width="332" height="262" fill="white"/>
</clipPath>
</defs>
</svg>
