<svg width="321" height="260" viewBox="0 0 321 260" fill="none" xmlns="http://www.w3.org/2000/svg">
<path fill-rule="evenodd" clip-rule="evenodd" d="M68.3379 155.207L69.1571 166.302L84.7228 170.297L96.6019 176.066L106.023 184.943L110.529 180.948L116.264 167.19L122.818 165.859L146.576 168.521L154.768 171.184L151.901 186.274L149.034 197.37L196.55 194.263L194.911 168.521L185.08 144.999L146.166 124.583L117.083 128.578L96.6019 152.988L87.5902 158.314L71.6149 157.426" fill="#CF536D"/>
<path fill-rule="evenodd" clip-rule="evenodd" d="M264.263 53.2223C267.464 57.425 262.748 63.3683 260.073 66.3009C258.775 67.7246 257.699 69.3701 256.43 70.8292C255.177 72.2712 253.604 73.406 252.478 74.798C251.296 76.2598 249.932 77.8596 248.943 79.5042C248.318 80.5462 247.39 81.7098 247.079 82.919C246.633 84.6578 247.006 83.6534 247.596 84.6365C248.199 85.6404 248.402 85.6984 248.607 87.0978C248.805 88.4583 249.088 89.4538 249.768 90.6161C250.889 92.5306 252.1 94.3304 252.891 96.4471C253.942 99.2623 254.685 102.121 255.523 105.017C255.849 106.146 256.068 107.44 256.595 108.481C257.344 109.959 257.449 109.835 258.563 108.913C261.887 106.161 265.249 103.252 268.715 100.629C270.701 99.1265 272.763 97.6554 274.858 96.3391C276.296 95.4357 279.386 93.8278 280.106 92.151C281.06 89.9273 279.574 87.8867 281.619 85.8391C282.951 84.5056 285.122 83.7663 286.857 83.4424C289.309 82.9849 292.018 83.6384 294.467 83.8751C296.944 84.114 299.365 83.8539 301.794 83.3066C305.512 82.469 312.654 77.8344 315.064 83.4021C316.118 85.8382 315.405 88.5375 315.207 91.0347C315.034 93.2111 314.443 95.5215 313.188 97.3116C311.753 99.357 309.664 99.4641 307.492 100.007C304.926 100.649 302.293 100.882 299.724 101.508C298.459 101.816 297.211 101.966 295.911 102.03C294.755 102.088 293.087 101.582 292.072 101.742C291.11 101.893 291.439 102.549 290.763 103.004C290.489 103.189 289.93 103.056 289.759 103.205C289.289 103.613 289.153 103.968 288.811 104.707C287.723 107.054 286.076 109.342 284.677 111.492C283.499 113.304 282.134 115.522 280.747 117.138C277.808 120.565 274.954 124.341 272.054 127.922C270.578 129.744 268.808 131.683 267.093 133.249C266.564 133.733 265.494 134.167 265.223 134.844C264.837 135.809 265.887 137.933 266.132 138.903C266.715 141.209 266.794 143.591 267.412 145.862C268.003 148.034 268.218 150.402 268.349 152.666C268.646 157.783 269.293 162.637 269.141 167.757C269.01 172.173 268.86 176.407 267.44 180.743C266.148 184.689 262.276 188.985 258.675 190.439C256.532 191.305 254.541 192.092 252.384 192.561C250.254 193.025 248.009 193.499 245.894 194.152C241.97 195.363 237.834 196.208 233.758 196.623C228.542 197.153 223.101 197.204 217.898 197.009C215.525 196.92 213.087 196.915 210.746 196.922C208.319 196.93 206.033 197.446 203.608 197.721C195.048 198.691 186.003 197.911 177.448 198.86C173.22 199.328 168.998 200.23 164.697 200.284C160.846 200.332 156.941 200.058 153.175 200.04C151.98 200.034 150.94 200.137 149.746 199.841C149.117 199.685 148.232 199.077 147.596 199.427C147.041 199.733 146.623 201.023 146.278 201.572C145.527 202.773 144.61 203.737 143.643 204.733C139.802 208.687 135.996 210.018 130.956 211.466C128.642 212.132 127.499 212.48 125.557 214.002C123.974 215.241 122.372 216.132 120.551 216.863C116.978 218.296 112.764 217.188 109.406 215.944C107.78 215.342 106.072 214.794 104.41 214.079C102.147 213.106 100.28 211.489 98.0498 210.494C98.3056 213.064 95.7248 213.927 94.9418 215.654C94.436 216.77 94.7425 218.522 94.2031 219.783C93.7029 220.953 92.9294 222.059 91.7233 222.365C90.0797 222.782 87.1415 220.807 85.987 219.655C85.346 219.015 84.7739 217.312 83.9889 217.028C82.9653 216.658 81.0888 218.294 80.1201 218.663C75.4834 220.43 70.785 221.264 65.8066 220.56C60.7623 219.846 56.1384 217.912 51.408 216.078C42.1438 212.485 34.0799 206.572 26.8256 199.451C26.422 199.055 25.8363 198.702 25.558 198.182C25.3149 197.729 25.3362 196.658 25.1774 196.405C24.7047 195.651 23.9967 195.785 23.1102 195.712C20.3713 195.489 18.1957 194.775 16.0728 192.793C12.7315 189.673 11.4955 182.398 16.6175 180.466C17.9268 179.972 19.3678 179.874 20.7213 180.178C21.2795 180.304 23.3562 181.663 23.8866 181.572C24.6908 181.434 24.5345 180.316 24.7481 179.719C25.29 178.205 26.0524 176.872 26.9717 175.588C28.4995 173.453 30.3613 171.306 32.2717 169.569C34.3471 167.681 36.6325 166.843 39.1033 165.797C40.7678 165.093 44.017 163.884 45.7801 164.514C48.0762 165.334 46.9523 168.044 45.5055 168.992C43.4391 170.346 40.9593 170.901 38.8655 172.271C36.5548 173.784 34.4441 175.855 32.3294 177.672C30.6277 179.135 29.1531 180.94 27.4243 182.343C26.9659 182.714 26.2174 183.365 26.075 183.57C26.0254 183.641 26.0864 184.22 25.8597 184.477C24.8541 185.617 25.0894 185.488 23.5751 185.088C21.7899 184.616 17.5281 183.55 16.3245 185.94C15.2411 188.091 19.6752 190.03 21.131 190.686C23.2682 191.649 23.7675 192.616 25.2945 194.451C26.8587 196.331 29.4572 197.61 31.4168 199.012C35.6523 202.042 40.4134 204.191 44.9493 206.599C49.3633 208.941 54.1084 210.627 58.7078 212.266C61.4847 213.255 64.8125 214.317 67.7269 214.622C70.6634 214.929 73.4174 214.412 76.2987 213.807C77.4508 213.565 78.3205 213.379 79.5254 212.92C80.0619 212.716 80.9374 212.686 81.3634 212.328C82.024 211.774 81.7494 211.331 81.8664 210.384C82.378 206.232 85.0448 210.867 86.2252 212.25C87.1358 213.316 88.0325 214.628 89.2312 215.304C90.7337 216.15 90.9944 215.751 91.4867 214.355C92.4084 211.741 92.7551 208.769 96.238 209.153C93.4881 206.612 90.8675 204.454 88.5138 201.4C86.1916 198.388 84.0204 195.151 81.7936 192.056C79.9682 189.518 78.3786 186.017 76.0093 184.015C75.2604 183.382 72.9836 181.925 72.1168 181.955C70.8198 182.001 69.6681 184.289 68.2708 184.48C66.7275 184.69 66.017 184.109 65.5762 182.755C65.119 181.351 66.2118 179.735 65.8426 178.715C65.7399 178.431 65.083 178.09 64.88 177.678C64.5747 177.059 64.5526 176.244 64.6439 175.558C64.7802 174.534 65.1153 174.116 65.0437 173.086C64.9606 171.89 64.4748 171.014 64.8575 169.763C65.259 168.448 66.4946 167.728 67.2657 166.756C68.4329 165.287 67.8366 164.178 67.3684 162.29C66.3657 158.25 65.1964 154.255 64.1789 150.217C61.8391 151.017 59.5513 151.923 57.1992 152.668C54.9368 153.385 52.1369 154.029 50.0378 155.16C48.7764 155.839 49.1268 155.215 49.2201 156.724C49.2798 157.701 49.6621 158.793 49.8397 159.756C50.1675 161.536 50.3104 166.127 51.6008 166.977C52.3821 167.492 53.6394 166.744 54.4984 167.784C55.222 168.658 55.0051 169.93 55.4406 170.902C55.7111 171.506 56.2346 171.737 56.5604 172.292C57.2406 173.453 57.1681 174.429 57.288 175.73C57.3633 176.549 57.2467 179.003 57.624 179.639C58.1274 180.488 59.1248 180.341 59.9659 180.606C62.0851 181.272 64.0369 182.431 65.8365 183.783C66.7704 185.016 73.4547 192.238 70.5517 193.157C69.1499 193.601 66.6698 190.191 65.6609 189.263C64.0971 187.827 62.4592 186.883 60.5524 186.091C55.8986 184.157 51.688 182.419 46.62 183.222C44.4471 183.566 41.8078 184.605 39.6251 184.376C37.4286 184.146 37.9974 182.03 39.371 180.849C40.5992 179.793 42.3087 180.09 42.8477 178.32C43.3916 176.532 42.8076 174.272 43.6806 172.48C44.4259 170.949 46.1829 169.361 47.5392 168.474C48.1306 168.088 49.1444 167.818 49.4534 167.249C49.7067 166.782 48.6626 164.104 48.5178 163.547C47.8089 160.82 47.0362 158.09 46.4358 155.333C45.8792 152.778 45.7343 151.454 48.2264 150.526C52.0297 149.11 56.0172 148.449 59.8222 147.147C59.1478 145.249 57.0396 146.846 55.5253 146.78C53.6705 146.7 51.5243 146.04 49.7579 145.425C45.7478 144.027 43.0192 140.543 42.3996 136.049C42.2633 135.063 42.6926 133.087 42.3603 132.215C42.0468 131.392 41.1603 130.991 40.5124 130.405C38.8426 128.893 37.3635 126.818 36.4627 124.67C35.5598 122.518 35.4968 120.1 36.0215 117.829C36.3104 116.577 36.4737 116.405 36.0653 115.221C35.5922 113.852 34.8207 112.633 34.3844 111.226C33.6698 108.922 33.2802 106.438 33.3191 104.004C33.3633 101.275 34.377 100.05 35.0486 97.643C35.5786 95.7432 34.8555 93.1173 34.9766 91.009C35.1317 88.3115 35.771 86.1444 36.8748 83.7432C38.5708 80.0542 41.2565 76.0996 44.7521 74.1653C45.4433 73.7826 46.5795 73.76 47.197 73.3153C47.9644 72.7627 48.0246 71.9482 48.325 70.9801C49.0416 68.6715 49.9363 66.8013 51.4858 65.0364C56.5112 59.3125 65.3175 57.2852 72.3799 57.7684C73.6482 57.8555 74.8572 58.5037 76.0593 58.1228C76.8921 57.8586 77.7745 56.9215 78.6332 56.5335C79.7198 56.0424 80.8085 55.7553 81.9777 55.6296C84.2868 55.3809 86.165 55.6438 88.2932 56.4857C89.0966 56.8038 89.866 57.1512 90.658 57.4963C91.9083 58.0418 91.8371 57.7821 93.0129 57.529C95.3564 57.0251 96.7029 57.398 98.7791 58.478C99.3325 58.7656 100.208 58.9793 100.683 59.3824C101.357 59.9536 101.632 61.6893 102.382 62.0131C102.797 62.1932 104.083 61.5309 104.619 61.4366C105.566 61.2698 106.492 61.4167 107.434 61.4057C109.101 61.3862 110.862 61.453 112.385 62.3043C113.531 62.9449 114.911 64.1811 115.898 65.0045C117.263 66.1433 118.117 68.2967 119.822 68.8931C120.49 69.1267 121.213 68.8905 121.895 69.0896C122.784 69.3488 123.637 70.0444 124.357 70.6585C125.596 71.7146 126.643 74.1697 127.905 74.5989C128.747 74.8856 130.056 74.5865 131.019 74.8833C132.228 75.2559 133.23 75.7957 134.127 76.7836C135.836 78.6684 136.319 81.4545 136.392 84.01C136.412 84.6989 136.019 86.6412 136.401 87.2527C136.74 87.7951 138.019 88.1079 138.539 88.6645C140.167 90.4046 140.902 93.3044 141.066 95.6883C141.255 98.4084 140.604 100.326 140.156 102.928C139.878 104.551 139.517 103.512 140.785 104.467C141.655 105.123 142.256 105.582 142.821 106.612C144.001 108.766 144.298 111.304 144.103 113.759C143.86 116.821 142.422 119.103 141.775 122C144.755 122 147.964 122.85 150.875 123.444C151.949 123.663 152.781 124.3 153.734 124.812C154.557 125.253 155.17 125.304 155.947 125.596C157.825 126.304 157.462 126.186 158.769 124.738C163.974 118.971 171.383 115.49 178.856 115.603C183.023 115.666 187.055 116.26 190.951 117.88C192.566 118.551 194.361 119.275 195.794 120.328C197.454 121.549 197.7 121.534 199.895 121.584C207.84 121.762 215.549 126.37 221.331 131.956C221.848 128.21 227.482 125.963 230.211 124.41C231.143 123.879 232 123.603 232.459 122.609C232.888 121.678 232.863 119.764 233.149 118.668C233.676 116.656 234.285 114.193 234.237 112.071C234.101 105.926 232.784 99.8088 232.614 93.6495C232.571 92.1027 232.408 90.3666 232.599 88.8349C232.752 87.6009 233.273 86.8315 232.524 85.6891C231.1 83.5207 228.476 82.9791 227.593 80.1245C226.171 75.5244 228.614 70.8204 231.949 68.0843C233.87 66.5092 235.747 66.1756 237.286 63.9674C238.672 61.9778 239.844 59.6248 241.424 57.8161C242.749 56.2999 243.956 54.2682 245.475 53.0064C247.032 51.7127 249.318 50.838 251.177 50.2234C255.641 48.7474 261.122 49.0996 264.263 53.2223ZM124.745 168.782C123.707 168.83 122.662 168.956 121.621 168.954C120.989 168.954 119.518 168.585 118.948 168.845C117.809 169.365 116.887 172.215 116.354 173.352C114.629 177.038 113.271 180.903 111.588 184.604C110.712 186.529 109.405 187.795 107.339 187.826C105.025 187.86 103.936 186.259 102.467 184.616C99.5383 181.338 95.5958 178.52 91.9603 176.24C88.0333 173.778 83.3508 171.392 78.88 170.522C75.9025 169.944 69.0812 167.447 67.2697 171.48C68.1955 171.347 71.7288 170.763 71.8786 172.454C71.9911 173.723 67.6446 173.94 67.1077 175.93C68.2442 175.834 72.1671 174.651 72.4429 176.476C72.5895 177.445 70.9503 177.934 70.3737 178.261C69.231 178.91 68.543 179.584 67.6434 180.559C69.0313 180.559 70.3995 179.286 71.7173 179.419C72.2608 179.474 72.9144 180.352 73.4088 180.619C74.1103 180.999 74.8675 181.188 75.641 181.291C77.3251 181.516 78.3446 181.003 79.6875 182.188C80.8932 183.252 82.1468 184.656 83.2575 185.84C85.628 188.367 87.5794 191.576 89.6131 194.416C92.124 197.923 94.7315 200.707 98.0715 203.334C100.79 205.471 103.546 206.855 106.627 208.429C109.649 209.973 113.449 211.764 116.878 211.849C119.613 211.917 123.031 210.969 125.52 209.709C126.967 208.976 127.494 208.976 128.942 208.686C131.19 208.236 133.792 206.932 135.873 205.91C142.409 202.699 146.55 195.7 149.497 188.85C151.174 184.951 152.222 181.142 152.921 176.923C153.301 174.625 153.633 174.086 151.56 173.136C149.467 172.176 147.204 171.583 145.024 170.905C138.632 168.917 131.346 168.478 124.745 168.782ZM140.361 127.199C139.709 127.516 139.362 130.903 139.069 131.657C137.763 135.024 135.446 137.124 132.048 137.475C130.994 137.584 129.274 136.546 128.518 137.037C127.505 137.693 127.323 140.832 126.233 141.861C125.231 142.809 123.142 143.811 121.856 144.176C120.863 144.457 119.878 144.38 118.889 144.132C118.325 143.991 117.248 143.238 116.696 143.522C115.755 144.006 115.312 146.583 114.238 147.458C112.667 148.736 110.174 149.683 108.251 149.659C106.269 149.634 103.879 147.942 102.114 148.347C100.018 148.828 100.294 150.933 99.3791 152.578C97.4363 156.073 95.2287 159.083 91.736 160.751C87.958 162.555 82.5425 162.785 78.58 161.867C76.426 161.368 74.2642 160.662 72.4462 159.329C70.9979 158.266 69.9106 156.851 68.5692 155.65L68.3499 155.458L68.361 155.501C68.3907 155.613 68.4209 155.722 68.4517 155.828C69.0906 158.028 69.3742 161.931 70.6434 163.725C71.7791 165.331 75.7224 165.421 77.621 165.637C82.7087 166.216 87.0838 167.502 91.5719 170.258C95.8676 172.897 99.7913 176.089 103.51 179.53C104.274 180.237 104.885 181.37 105.809 181.825C107.319 182.567 107.197 181.7 107.596 180.249C108.415 177.271 109.283 174.331 110.531 171.524C111.065 170.321 112.281 168.831 112.542 167.554C112.791 166.328 112.279 164.991 112.453 163.675C112.893 160.351 114.282 157.517 116.024 154.829C117.233 152.963 120.85 149.786 120.388 154.482C120.047 157.95 117.702 161.022 117.126 164.43C118.903 164.072 120.019 164.176 121.619 164.285C123.802 164.434 126.285 163.512 128.536 163.504C132.852 163.489 137.102 163.793 141.344 164.623C143.309 165.008 145.179 165.443 147.073 166.169C148.561 166.74 150.54 168.556 152.126 168.695C153.275 168.795 152.874 168.958 153.187 167.899C153.477 166.916 153.165 165.148 153.107 164.117C152.975 161.784 152.458 159.514 152.189 157.196C152.074 156.202 150.975 152.056 152.135 151.252C153.909 150.023 154.651 154.847 154.877 155.711C156.034 160.141 156.779 164.505 156.744 169.137C156.714 173.142 156.468 176.992 155.774 180.974C155.364 183.326 154.612 185.585 153.768 187.791C153.323 188.953 150.716 193.357 151.078 194.132C151.369 194.754 155.8 193.672 156.481 193.609C158.906 193.385 161.338 193.541 163.766 193.385C167.355 193.155 170.971 193.202 174.407 192.519C176.456 192.111 178.631 192.501 180.678 192.515C182.936 192.531 185.118 192.306 187.391 192.538C189.117 192.714 191.707 193.698 193.372 193.29C195.076 192.871 194.573 191.639 194.585 189.765C194.612 185.236 194.239 180.025 193.303 175.622C192.809 173.301 192.145 171.053 191.79 168.693C191.436 166.333 191.454 163.781 190.795 161.495C189.625 157.439 186.41 153.918 183.746 150.92C181.005 147.835 177.957 145.596 174.594 143.384C171.736 141.504 168.716 139.738 165.62 138.268C161.904 136.502 157.684 135.414 154.24 133.09C151.373 131.156 147.228 129.249 143.921 128.353C143.398 128.212 140.731 127.019 140.361 127.199ZM242.445 89.7109C240.061 90.0728 235.603 88.815 235.606 92.3656C235.606 94.3132 236.205 96.3555 236.375 98.304C236.575 100.603 236.436 102.917 236.76 105.208C237.286 108.916 238.056 112.34 237.798 116.149C237.517 120.29 236.718 124.269 236.792 128.469C236.863 132.466 236.663 136.32 238.422 139.988C239.164 141.536 239.766 143.356 240.583 144.805C241.54 146.503 242.368 147 244.079 147.684C245.15 148.112 247.787 148.67 248.481 149.824C249.483 151.49 248.145 152.164 246.827 152.108C242.758 151.933 238.581 149.972 234.766 148.54C232.971 147.865 231.243 147.016 229.479 146.281C228.07 145.693 226.92 145.49 225.639 144.487C222.515 142.042 220.103 138.664 217.023 136.156C211.194 131.413 204.207 128.581 196.886 127.741C195.003 127.524 193.545 127.622 191.658 127.794C190.615 127.89 189.581 127.92 188.548 128.127C187.951 128.247 185.707 129.399 185.241 129.159C182.212 127.605 190.787 122.872 191.751 122.613C190.533 121.686 188.003 121.846 186.541 121.64C184.675 121.376 182.861 121.119 180.977 121.23C178.343 121.386 175.541 121.302 172.956 121.916C169.717 122.685 166.649 123.866 163.722 125.523C162.745 126.076 161.37 126.748 161.38 128.29C161.388 129.738 161.922 129.501 163.228 129.822C166.747 130.687 170.003 133.205 173.138 135.124C176.471 137.164 179.79 139.456 182.883 141.9C188.812 146.585 192.196 153.327 194.829 160.655C196.191 164.445 197.179 168.871 197.589 172.911C198.045 177.405 197.664 181.925 197.99 186.415C198.067 187.476 198.198 191.709 198.939 192.369C199.502 192.869 202.292 191.975 203.079 191.916C206.368 191.672 209.676 191.696 212.902 191.495C219.72 191.071 226.71 191.663 233.59 191.226C237.051 191.006 240.401 190.481 243.795 189.726C246.95 189.025 250.881 188.942 253.759 187.322C259.298 184.205 262.675 176.691 262.918 170.328C263.182 163.431 262.746 155.925 261.404 149.054C260.701 145.452 260.091 142.023 259.264 138.462C258.338 134.476 257.298 130.508 256.281 126.571C254.53 119.794 251.804 113.481 250.499 106.536C249.781 102.715 248.764 98.7208 247.703 94.9919C247.312 93.6177 246.54 91.0068 245.629 89.9627C244.673 88.8663 243.869 89.495 242.445 89.7109ZM48.0782 172.243C46.6421 173.235 45.6066 175.466 45.6721 177.306C45.6721 179.734 47.5384 178.7 49.297 178.788C50.3677 178.841 54.327 180.027 55.0231 178.882C55.8544 177.515 53.3545 178.125 53.0382 177.392C52.3985 175.908 55.3317 175.282 54.9732 173.996C54.6147 172.711 51.6344 175.677 50.9955 174.185C50.4041 172.803 53.4147 171.608 52.9526 170.656C52.5605 169.85 48.5857 171.891 48.0782 172.243ZM54.3145 159.592C54.3071 160.626 53.9768 162.003 52.7854 161.792C51.2977 161.528 50.8467 158.443 50.7108 157.276C51.6636 153.433 54.3304 157.234 54.3145 159.592ZM97.5125 126.562C95.7923 126.853 95.5983 127.685 94.7941 128.961C94.427 128.645 94.1994 128.226 94.1118 127.704C90.0449 129.683 85.8134 131.229 81.4023 131.96C76.4874 132.776 71.3604 131.542 66.3665 131.039C65.7203 130.974 63.7365 130.111 63.2098 130.454C62.7739 130.737 62.7813 133.118 62.7457 133.578C62.503 136.714 63.0567 139.484 63.4832 142.554C63.597 143.371 63.4852 145.14 64.0815 145.838C64.501 146.328 65.2475 146.15 65.7788 146.89C67.2107 148.887 67.6574 152.756 68.3167 155.331L68.333 155.394L68.3362 155.348C68.5402 152.722 70.4409 154.071 71.8552 154.759C73.9814 155.794 76.2095 156.348 78.5096 156.696C80.3591 156.976 82.4574 157.646 84.3548 157.539C86.3475 157.427 88.7987 156.574 90.7386 155.961C92.5766 155.381 93.5908 154.124 94.8596 152.506C96.0714 150.961 97.3901 149.902 98.6981 148.523C101.993 145.049 101.091 137.851 98.2287 134.451C100.544 133.168 104.56 130.346 101.038 127.484C100.128 126.744 98.6101 126.376 97.5125 126.562ZM68.333 155.394L68.3298 155.441L68.3499 155.458L68.333 155.394ZM79.6151 149.43C80.5282 149.505 81.1842 150.246 80.944 151.268C80.6403 152.559 78.562 153.368 77.5229 153.44C74.7689 153.795 77.3739 149.247 79.6151 149.43ZM70.9178 144.462C71.0165 145.212 70.9187 145.679 71.5203 145.922C71.9803 146.109 72.8496 145.725 73.4152 145.984C73.9796 146.243 73.9976 146.4 74.3443 147.008C73.9518 148.334 72.1506 149.834 70.7054 149.037C68.9083 148.045 68.7409 144.132 69.2337 142.462C70.0686 139.633 70.7705 143.344 70.9178 144.462ZM230.712 129.52C229.962 129.814 229.301 130.648 228.631 131.102C226.847 132.309 224.896 132.95 223.188 134.272C224.408 135.694 225.047 137.622 226.238 138.99C226.984 139.846 227.89 139.941 228.787 140.405C231.407 141.763 234.491 143.673 237.385 144.322C235.691 142.181 234.615 140.244 233.609 137.642C233.249 136.711 232.798 135.727 232.529 134.761C232.142 133.377 232.35 131.912 232.023 130.547C231.67 129.072 232.157 128.953 230.712 129.52ZM65.9742 137.627C66.7363 138.598 67.322 140.788 67.3866 142.029C66.5828 146.187 63.8915 140.45 63.9733 138.587C64.0494 136.87 64.8844 136.238 65.9742 137.627ZM73.2658 135.351C74.5718 136.554 74.9982 138.563 75.1337 140.223C75.281 142.023 74.9004 142.788 73.2408 141.631C71.7879 140.619 71.061 137.922 70.9857 136.342C70.9857 134.542 72.0003 134.185 73.2658 135.351ZM99.5391 130.201C99.8653 132.079 96.0149 134.008 96.6435 131.068C96.5175 129.192 99.1929 128.212 99.5391 130.201ZM281.339 96.2192C278.43 100.054 274.909 102.489 271.269 105.386C268.046 107.953 264.976 110.726 261.486 112.857C260.461 113.483 258.783 113.847 258.597 115.01C258.423 116.103 260.302 119.039 260.736 120.225C262.202 124.222 263.284 128.325 264.43 132.449C267.846 126.699 271.291 120.854 275.478 115.655C279.173 111.067 282.963 106.266 286.193 101.322C284.238 100.036 282.618 98.262 281.339 96.2192ZM302.657 87.3761C299.418 88.4694 295.687 89.0848 292.311 88.7123C290.781 88.5433 289.273 88.4026 287.728 88.2995C286.572 88.2225 284.615 87.6133 283.62 88.576C282.679 89.4861 282.793 91.2975 283.272 92.4288C283.582 93.1602 284.012 93.2783 284.293 93.884C284.383 94.0791 284.115 94.4163 284.348 94.8751C284.988 96.1378 287.166 98.2478 288.34 98.8907C289.845 99.7158 290.07 98.7562 291.243 97.9248C293.714 96.175 297.865 96.1431 300.759 95.8281C300.818 96.5006 309.206 93.2677 310.034 92.6744C311.583 91.5652 313.397 86.4598 311.75 84.9467C309.761 83.1203 304.58 86.7262 302.657 87.3761ZM246.246 63.0405C245.227 64.7952 243.871 66.6791 242.365 67.9919C240.664 69.4745 238.456 70.0501 236.512 71.0646C234.75 71.9831 233.185 72.9034 232.085 74.6758C231.325 75.9018 229.931 77.6221 230.566 79.202C231.216 80.8183 233.778 81.9518 234.891 83.3565C236.423 85.2905 236.425 84.9108 238.72 84.3764C239.867 84.1091 240.956 84.026 242.128 84.0702C242.602 84.0879 244.202 84.5896 244.622 84.2529C245.16 83.8216 244.631 82.0305 244.699 81.3337C244.803 80.2736 245.152 79.1799 245.482 78.1804C246.794 74.2126 249.287 71.596 251.711 68.5874C254.312 65.3593 257.875 63.0936 260.438 59.8505C261.852 58.0599 261.208 56.7941 259.267 55.9557C258.28 55.53 257.124 55.5318 256.111 55.1925C255.064 54.8416 254.132 54.1505 253.01 54.1368C248.243 53.9302 248.091 59.8651 246.246 63.0405Z" fill="#C9C9C9"/>
</svg>
