<svg width="16" height="18" viewBox="0 0 16 18" fill="none" xmlns="http://www.w3.org/2000/svg">
<path d="M12.25 0C12.6642 0 13 0.335786 13 0.75V2.25C13 2.25163 12.999 2.25325 12.999 2.25488C13.7737 2.42346 14.3585 2.7022 14.8281 3.17188C15.9997 4.34345 16 6.22876 16 10C16 13.7712 15.9997 15.6566 14.8281 16.8281C13.6566 17.9997 11.7712 18 8 18C4.22876 18 2.34345 17.9997 1.17188 16.8281C0.000302125 15.6566 0 13.7712 0 10C0 6.22876 0.000302125 4.34345 1.17188 3.17188C1.53734 2.80641 1.97173 2.55388 2.51172 2.38086C2.50423 2.33835 2.5 2.29466 2.5 2.25V0.75C2.5 0.335786 2.83579 0 3.25 0C3.66421 0 4 0.335786 4 0.75V2.10156C5.03182 2.00007 6.33132 2 8 2C9.40975 2 10.556 1.99935 11.5 2.06055V0.75C11.5 0.335786 11.8358 0 12.25 0ZM3.75 5.5C3.33579 5.5 3 5.83579 3 6.25C3 6.66421 3.33579 7 3.75 7H12.25C12.6642 7 13 6.66421 13 6.25C13 5.83579 12.6642 5.5 12.25 5.5H3.75Z" fill="black"/>
</svg>
