<svg width="20" height="14" viewBox="0 0 20 14" fill="none" xmlns="http://www.w3.org/2000/svg">
<mask id="path-1-inside-1_16_56" fill="white">
<path d="M10 0C12.3846 0 14.3785 1.66954 14.8784 3.90339C14.8911 3.96024 14.9417 4 15 4C17.7614 4 20 6.23858 20 9C20 11.7614 17.7614 14 15 14H5C2.23858 14 0 11.7614 0 9C0 6.23858 2.23858 4 5 4C5.0577 4 5.10782 3.96065 5.12041 3.90434C5.61994 1.66993 7.61496 0 10 0Z"/>
</mask>
<path d="M10 0C12.3846 0 14.3785 1.66954 14.8784 3.90339C14.8911 3.96024 14.9417 4 15 4C17.7614 4 20 6.23858 20 9C20 11.7614 17.7614 14 15 14H5C2.23858 14 0 11.7614 0 9C0 6.23858 2.23858 4 5 4C5.0577 4 5.10782 3.96065 5.12041 3.90434C5.61994 1.66993 7.61496 0 10 0Z" fill="black"/>
<path d="M5.12041 3.90434L6.58427 4.2316L5.12041 3.90434ZM14.8784 3.90339L16.3422 3.57579L14.8784 3.90339ZM10 0V1.5C11.667 1.5 13.0646 2.66718 13.4146 4.23098L14.8784 3.90339L16.3422 3.57579C15.6923 0.671904 13.1023 -1.5 10 -1.5V0ZM15 4V5.5C16.933 5.5 18.5 7.067 18.5 9H20H21.5C21.5 5.41015 18.5899 2.5 15 2.5V4ZM20 9H18.5C18.5 10.933 16.933 12.5 15 12.5V14V15.5C18.5899 15.5 21.5 12.5899 21.5 9H20ZM15 14V12.5H5V14V15.5H15V14ZM5 14V12.5C3.067 12.5 1.5 10.933 1.5 9H0H-1.5C-1.5 12.5899 1.41015 15.5 5 15.5V14ZM0 9H1.5C1.5 7.067 3.067 5.5 5 5.5V4V2.5C1.41015 2.5 -1.5 5.41015 -1.5 9H0ZM5.12041 3.90434L6.58427 4.2316C6.93388 2.66781 8.33234 1.5 10 1.5V0V-1.5C6.89757 -1.5 4.306 0.672048 3.65654 3.57707L5.12041 3.90434ZM5 4V5.5C5.7453 5.5 6.41526 4.9876 6.58427 4.2316L5.12041 3.90434L3.65654 3.57707C3.80038 2.9337 4.37011 2.5 5 2.5V4ZM14.8784 3.90339L13.4146 4.23098C13.5838 4.9869 14.2538 5.5 15 5.5V4V2.5C15.6297 2.5 16.1985 2.93359 16.3422 3.57579L14.8784 3.90339Z" fill="black" mask="url(#path-1-inside-1_16_56)"/>
</svg>
