<svg width="18" height="20" viewBox="0 0 18 20" fill="none" xmlns="http://www.w3.org/2000/svg">
<circle cx="7" cy="4" r="3.25" fill="black" stroke="black" stroke-width="1.5"/>
<path d="M7 9.75C8.37965 9.75 9.43467 10.0233 10.2041 10.3477C10.3401 10.405 10.3822 10.4644 10.3936 10.4844C10.4048 10.5042 10.412 10.5296 10.4043 10.5703C10.3876 10.658 10.2793 10.8546 9.95508 10.9473C8.94602 11.2356 8.25021 12.1576 8.25 13.207V14C8.25 14.6904 7.69036 15.25 7 15.25H2C1.64953 15.25 1.34555 15.1037 1.16309 14.9043C0.991835 14.717 0.927714 14.4904 1.00195 14.2373C1.76294 11.6431 4.1613 9.75 7 9.75Z" fill="black" stroke="black" stroke-width="1.5" stroke-linecap="round"/>
<line x1="10.8284" y1="16.364" x2="14.364" y2="12.8284" stroke="black" stroke-width="1.5" stroke-linecap="round"/>
<line x1="14.364" y1="16.364" x2="10.8284" y2="12.8284" stroke="black" stroke-width="1.5" stroke-linecap="round"/>
</svg>
