<svg width="16" height="17" viewBox="0 0 16 17" fill="none" xmlns="http://www.w3.org/2000/svg">
<path d="M1 7.33578L6.58579 1.75C7.25245 1.08333 7.58579 0.749998 8 0.749998C8.41421 0.749998 8.74755 1.08333 9.41421 1.75L15 7.33578" stroke="black" stroke-width="1.5" stroke-linecap="round"/>
<line x1="0.75" y1="15.5858" x2="15.25" y2="15.5858" stroke="black" stroke-width="1.5" stroke-linecap="round"/>
<path d="M5 3.33578V8.33578C5 9.75 5 10.4571 5.43934 10.8964C5.87868 11.3358 6.58579 11.3358 8 11.3358C9.41421 11.3358 10.1213 11.3358 10.5607 10.8964C11 10.4571 11 9.75 11 8.33578V3.33578" stroke="black" stroke-width="1.5" stroke-linecap="round"/>
<path d="M8 1.33578L5 4.62585L5.5 10.8703L8.2984 11.3358L11 10.4047V4.35284L8 1.33578Z" fill="black" stroke="black"/>
<path d="M1 8.05407L8 0.835785L15 8.05407H1Z" fill="black"/>
</svg>
