<svg width="20" height="19" viewBox="0 0 20 19" fill="none" xmlns="http://www.w3.org/2000/svg">
<path d="M0.75 9.33574L8.21949 1.76004C8.88149 1.08862 9.21249 0.752916 9.62672 0.750012C10.041 0.747108 10.3766 1.07814 11.048 1.74021L18.75 9.33574" stroke="black" stroke-width="1.5" stroke-linecap="round"/>
<path d="M2.75 7.33574L3.5699 15.5347C3.65549 16.3907 3.69829 16.8186 3.98398 17.0772C4.26967 17.3357 4.69977 17.3357 5.55998 17.3357H13.94C14.8002 17.3357 15.2303 17.3357 15.516 17.0772C15.8017 16.8186 15.8445 16.3907 15.9301 15.5347L16.75 7.33574" stroke="black" stroke-width="1.5" stroke-linecap="round"/>
<path d="M9.75 0.835739L2.75 8.33574L4.25 17.3357H15.25L17.25 8.33574L9.75 0.835739Z" fill="black"/>
</svg>
