<svg width="20" height="20" viewBox="0 0 20 20" fill="none" xmlns="http://www.w3.org/2000/svg">
<mask id="path-1-inside-1_16_86" fill="white">
<path d="M10 0C10.4757 0 10.9435 0.0332822 11.4014 0.0976106C12.1816 0.207204 12.0777 1.41635 11.3864 1.79413C9.36858 2.89684 8 5.03821 8 7.5C8 11.0899 10.9101 14 14.5 14C15.6673 14 16.762 13.6919 17.7083 13.1528C18.392 12.7632 19.47 13.312 19.1525 14.032C17.6024 17.5467 14.0882 20 10 20C4.47715 20 0 15.5228 0 10C0 4.47715 4.47715 0 10 0Z"/>
</mask>
<path d="M10 0C10.4757 0 10.9435 0.0332822 11.4014 0.0976106C12.1816 0.207204 12.0777 1.41635 11.3864 1.79413C9.36858 2.89684 8 5.03821 8 7.5C8 11.0899 10.9101 14 14.5 14C15.6673 14 16.762 13.6919 17.7083 13.1528C18.392 12.7632 19.47 13.312 19.1525 14.032C17.6024 17.5467 14.0882 20 10 20C4.47715 20 0 15.5228 0 10C0 4.47715 4.47715 0 10 0Z" fill="black"/>
<path d="M11.4014 0.0976106L11.6101 -1.3878L11.4014 0.0976106ZM10 0V1.5C10.4056 1.5 10.8037 1.52837 11.1928 1.58302L11.4014 0.0976106L11.6101 -1.3878C11.0833 -1.46181 10.5457 -1.5 10 -1.5V0ZM11.3864 1.79413L10.6671 0.477859C8.18738 1.83298 6.5 4.46792 6.5 7.5H8H9.5C9.5 5.6085 10.5498 3.96071 12.1057 3.1104L11.3864 1.79413ZM8 7.5H6.5C6.5 11.9183 10.0817 15.5 14.5 15.5V14V12.5C11.7386 12.5 9.5 10.2614 9.5 7.5H8ZM14.5 14V15.5C15.9346 15.5 17.2845 15.1206 18.4508 14.4561L17.7083 13.1528L16.9657 11.8495C16.2396 12.2631 15.4 12.5 14.5 12.5V14ZM19.1525 14.032L17.78 13.4267C16.4611 16.4174 13.4725 18.5 10 18.5V20V21.5C14.7039 21.5 18.7438 18.6759 20.5249 14.6373L19.1525 14.032ZM10 20V18.5C5.30558 18.5 1.5 14.6944 1.5 10H0H-1.5C-1.5 16.3513 3.64873 21.5 10 21.5V20ZM0 10H1.5C1.5 5.30558 5.30558 1.5 10 1.5V0V-1.5C3.64873 -1.5 -1.5 3.64873 -1.5 10H0ZM17.7083 13.1528L18.4508 14.4561C18.3415 14.5184 18.25 14.5251 18.2053 14.5233C18.1636 14.5216 18.1198 14.5116 18.0668 14.4816C18.0201 14.4551 17.8873 14.3665 17.7929 14.1602C17.68 13.9134 17.688 13.6353 17.78 13.4267L19.1525 14.032L20.5249 14.6373C20.7756 14.0688 20.768 13.452 20.5209 12.912C20.2923 12.4124 19.9069 12.076 19.5449 11.871C18.8581 11.4821 17.8484 11.3466 16.9657 11.8495L17.7083 13.1528ZM11.4014 0.0976106L11.1928 1.58302C10.966 1.55116 10.7247 1.41049 10.5747 1.18389C10.4495 0.994829 10.4448 0.836031 10.4469 0.783972C10.4494 0.724566 10.4636 0.683724 10.4832 0.648805C10.5042 0.611496 10.5571 0.537935 10.6671 0.477859L11.3864 1.79413L12.1057 3.1104C12.9963 2.62373 13.4122 1.69424 13.4444 0.90663C13.4614 0.491363 13.3796 -0.0138822 13.0761 -0.472284C12.7478 -0.968229 12.227 -1.30115 11.6101 -1.3878L11.4014 0.0976106Z" fill="black" mask="url(#path-1-inside-1_16_86)"/>
</svg>
