<svg width="16" height="19" viewBox="0 0 16 19" fill="none" xmlns="http://www.w3.org/2000/svg">
<path d="M8 3.25C9.63461 3.25 10.8014 3.50942 11.6416 3.93359C12.4661 4.34989 13.0184 4.9459 13.4014 5.70801C13.7929 6.48728 14.0152 7.45749 14.1318 8.61719C14.2483 9.77611 14.2559 11.0741 14.248 12.4951C14.2441 13.1879 13.6783 13.75 12.9873 13.75H3.0127C2.32171 13.75 1.75591 13.1879 1.75195 12.4951C1.74411 11.0741 1.75165 9.77611 1.86816 8.61719C1.98478 7.45749 2.20707 6.48728 2.59863 5.70801C2.98162 4.9459 3.5339 4.34989 4.3584 3.93359C5.19862 3.50942 6.36539 3.25 8 3.25Z" fill="black" stroke="black" stroke-width="1.5"/>
<line x1="0.75" y1="15.75" x2="15.25" y2="15.75" stroke="black" stroke-width="1.5" stroke-linecap="round"/>
<line x1="7.75" y1="17.75" x2="8.25" y2="17.75" stroke="black" stroke-width="1.5" stroke-linecap="round"/>
<line x1="7.75" y1="0.75" x2="8.25" y2="0.75" stroke="black" stroke-width="1.5" stroke-linecap="round"/>
</svg>
