<svg width="16" height="18" viewBox="0 0 16 18" fill="none" xmlns="http://www.w3.org/2000/svg">
<path d="M2 3.75L2.73395 14.8816C2.79234 15.7672 2.82154 16.21 3.10993 16.48C3.39832 16.75 3.84209 16.75 4.72962 16.75H11.2704C12.1579 16.75 12.6017 16.75 12.8901 16.48C13.1785 16.21 13.2077 15.7672 13.266 14.8816L14 3.75" stroke="black" stroke-width="1.5" stroke-linecap="round"/>
<path d="M10 2.75L9.95672 2.44706C9.84257 1.64802 9.7855 1.2485 9.51474 1.00561C9.50644 0.998164 9.49801 0.990857 9.48946 0.983693C9.21073 0.75 8.80715 0.75 8 0.75C7.19285 0.75 6.78927 0.75 6.51053 0.983693C6.50199 0.990857 6.49356 0.998164 6.48526 1.00561C6.2145 1.2485 6.15743 1.64802 6.04328 2.44706L6 2.75" stroke="black" stroke-width="1.5" stroke-linecap="round"/>
<line x1="0.75" y1="3" x2="15.25" y2="3" stroke="black" stroke-width="1.5" stroke-linecap="round"/>
<path d="M10.3906 2.75H14.54L14.498 3.28809L13.498 16.2881L13.4629 16.75H3.05469L3.00293 16.3076L1.50293 3.30762L1.43945 2.75H5.60938L6.10938 0.75H9.89062L10.3906 2.75ZM6.25 6.75C5.83579 6.75 5.5 7.08579 5.5 7.5V13C5.5 13.4142 5.83579 13.75 6.25 13.75C6.66421 13.75 7 13.4142 7 13V7.5C7 7.08579 6.66421 6.75 6.25 6.75ZM10.25 6.75C9.83579 6.75 9.5 7.08579 9.5 7.5V13C9.5 13.4142 9.83579 13.75 10.25 13.75C10.6642 13.75 11 13.4142 11 13V7.5C11 7.08579 10.6642 6.75 10.25 6.75Z" fill="black"/>
</svg>
